<svg width="32" height="32" viewBox="0 0 32 32" fill="none" xmlns="http://www.w3.org/2000/svg">
<path fill-rule="evenodd" clip-rule="evenodd" d="M23.3261 13.4999C23.2289 13.1346 23.555 12.8762 23.899 13.0965C24.3325 13.3744 24.9184 13.8304 25.7471 13.2435C26.8722 12.4469 26.8525 14.1324 25.0651 14.2527C24.4077 14.297 23.4316 13.8957 23.3261 13.4999ZM24.0971 11.5623C24.0595 11.3443 24.1946 11.1885 24.34 11.1429C24.6412 11.0485 24.6568 11.2259 24.8484 11.2733C25.0197 11.3158 25.6756 10.8235 25.7326 11.4465C25.8 12.1855 24.2083 12.206 24.0974 11.5623H24.0971ZM23.288 9.73733C23.2924 10.5563 22.3999 10.7841 21.9797 10.2708C21.505 9.69119 22.1197 8.79683 22.7991 9.11983C22.9964 9.06669 23.2206 9.01355 23.3565 9.21134C23.5247 9.45606 23.3448 9.64116 23.288 9.73733ZM27.9983 9.73967C27.9926 10.5086 27.2269 10.7929 26.7491 10.3149C26.2353 9.8011 26.6187 8.96663 27.4913 9.08847L27.4314 9.21108C27.6987 8.97803 27.7873 9.02755 28.0735 9.16987C28.143 9.42418 28.0968 9.57427 27.9986 9.73992L27.9983 9.73967ZM19.4933 9.00396L19.4902 9.31219C19.7116 9.47654 20.0007 9.56209 20.2311 9.70726C22.6026 11.1999 22.1038 13.6686 22.143 16.1384L23.4122 16.6877L23.42 17.846L22.6257 17.8537C22.4224 17.7194 22.2316 17.4102 22.1464 17.2523C21.8703 17.1211 21.7803 17.0327 21.4148 17.0193C21.3827 16.6498 21.441 15.8112 21.3611 15.5771C21.3557 15.5611 21.3461 15.5442 21.3404 15.5305L21.2891 15.4472C21.294 15.6966 21.3497 15.9795 21.3505 16.2493L21.3536 16.8671C21.3788 17.018 21.3484 16.9542 21.4148 17.019C21.3189 18.0883 21.4716 19.0413 21.0415 19.9032L21.1449 19.9815C21.8008 19.9276 21.8755 19.932 22.2825 19.5292L22.4385 19.3868C22.8147 19.5157 23.2258 19.701 23.6587 19.8239C23.6587 20.4474 23.5745 21.8091 23.7046 22.3364H26.1767L26.1728 19.8465C26.4349 19.7135 26.8256 19.6295 27.127 19.5051C27.7103 19.2642 28.8491 18.5529 29.3153 18.128C29.5053 17.9548 29.4026 18.0847 29.5001 17.8633L26.4123 17.8506L26.4022 16.7268C26.5829 16.5757 27.0477 16.4533 27.2821 16.3432C27.6043 16.1915 27.8202 16.0191 28.101 15.869C28.297 15.6463 28.4766 15.5561 28.6838 15.369C29.2911 14.8194 29.6551 14.0697 30.0292 13.3506C30.6293 13.4288 30.7535 13.3101 31.1652 13.1032C31.2486 12.9811 31.3194 12.934 31.4143 12.7883C31.5219 12.6231 31.5203 12.5184 31.6258 12.3701C31.6258 12.0412 31.6683 11.6448 31.59 11.348C31.4941 10.9853 31.3624 10.9262 31.1885 10.6994C31.0179 10.6167 30.9515 10.555 30.7579 10.4946C29.9315 10.2361 30.7118 10.598 30.1806 7.94498C28.7105 7.87862 26.9547 8.26773 25.7821 6.65425C25.7225 6.57207 25.6681 6.49819 25.6002 6.39838L25.483 6.23921C25.4804 6.22469 25.4682 6.22184 25.4596 6.21484C25.351 6.27758 24.9386 6.80771 24.5238 7.14653C23.2536 8.18451 21.2823 7.94835 19.6561 7.94368L19.4933 9.00396Z" fill="#E09380"/>
<path fill-rule="evenodd" clip-rule="evenodd" d="M11.0132 21.8567C11.0744 22.1022 11.1657 22.6085 10.8502 22.7129L10.1331 22.7396C9.7479 22.7399 9.52185 22.7637 9.23928 22.6435C9.11252 22.1437 9.08556 21.8072 9.68646 21.7921C10.0844 21.782 10.6902 21.7501 11.0135 21.8569L11.0132 21.8567ZM0.601562 20.3744C0.888277 22.049 2.47869 24.7207 3.46326 25.9736C4.68504 27.5282 6.284 28.8708 7.98951 29.8743C7.95607 27.8111 7.83449 25.6633 10.1632 24.7293C10.9396 24.4177 11.581 24.5219 12.4598 24.4716C12.3024 24.3072 12.3242 24.2463 12.3729 24.0524C12.7768 23.8919 13.8653 24.0158 14.4053 23.9824L14.3924 23.2949C13.9838 23.0785 13.5942 23.0009 13.1765 22.7611C12.2993 22.258 11.5117 21.4606 11.0485 20.5089C10.9303 20.2663 10.8764 20.0913 10.712 19.971L10.3579 20.0101C9.7059 19.9653 9.70928 19.6892 9.33209 19.4284C9.20921 19.6949 9.01634 19.9868 8.86858 20.2432C8.67078 20.5862 8.56527 20.8654 8.37577 20.9659C8.13779 20.8205 8.01051 20.4908 7.87389 20.2507C7.72846 19.9949 7.55762 19.7437 7.43967 19.4634L7.40234 19.4212L6.64874 19.4492C6.44965 19.7869 5.92703 20.8104 5.68828 20.9665C5.43863 20.8239 4.78899 19.5554 4.59301 19.2192C4.23345 18.6025 3.90992 18.0483 3.55062 17.4378C3.15633 17.4774 2.52638 17.3491 2.2109 17.5116L3.34583 17.5339C2.75866 17.4948 1.82204 18.1921 1.54285 18.4788C0.999489 19.037 0.826838 19.4702 0.602599 20.3746L0.601562 20.3744Z" fill="#5766CE"/>
<path fill-rule="evenodd" clip-rule="evenodd" d="M27.9179 21.7194C27.8603 21.288 27.7851 20.8878 28.3085 20.86C28.4845 20.8507 29.3691 20.9096 29.5689 20.9412L29.6247 21.7005C29.2975 21.8042 28.203 21.8005 27.9179 21.7194ZM21.1435 19.9815C20.9478 20.0696 21.023 20.0108 20.9208 20.2234C20.1875 21.7505 19.1181 22.8344 17.3937 23.2712L17.381 23.3015L17.3789 24.002C17.8282 23.9719 19.1404 23.9146 19.4453 24.0476C19.5184 24.2934 19.4479 24.2856 19.4009 24.5103C19.9241 24.3175 21.1604 24.5033 21.6187 24.6845C23.9824 25.6193 23.9134 27.779 23.8131 29.9989C24.0514 29.8371 24.2961 29.7124 24.5499 29.5493C25.3444 29.0392 27.1575 27.6606 27.7854 26.8476C27.9077 26.6892 27.9093 26.684 28.0464 26.5461C29.4046 25.1807 30.7383 22.5236 31.3042 20.7416C31.4416 20.3089 31.7491 19.2689 31.7491 18.7722C31.5624 18.6876 31.4492 18.5516 31.2612 18.4245C31.0917 18.3099 30.9221 18.2265 30.7332 18.1404C30.3575 17.9693 29.9368 17.87 29.4982 17.8633C29.4007 18.0847 29.5031 17.9548 29.3133 18.128C28.8475 18.5528 27.7084 19.2639 27.1251 19.505C26.8236 19.6295 26.433 19.7134 26.1709 19.8464L26.1748 22.3364H23.7027C23.5723 21.8091 23.6568 20.4473 23.6568 19.8239C23.2239 19.701 22.8127 19.5156 22.4366 19.3868L22.2805 19.5291C21.8735 19.932 21.7989 19.9276 21.143 19.9815H21.1435Z" fill="#FFCD71"/>
<path fill-rule="evenodd" clip-rule="evenodd" d="M8.1875 2.09053C8.95069 2.09209 12.7534 2.03687 13.1856 2.13253C13.5023 2.88431 12.8296 4.62223 12.4794 5.12436C12.4867 5.1337 12.4986 5.14692 12.5025 5.15158C12.5064 5.15651 12.5209 5.17362 12.5258 5.17958L12.6007 5.27265C12.6622 5.35431 12.671 5.37297 12.7293 5.45852C13.536 6.64633 13.2592 7.55729 13.2773 9.22573C13.7743 9.11244 15.618 9.00304 16.1165 9.19436C16.4076 9.30609 16.5621 9.48859 16.8123 9.60473C16.8615 9.45774 17.2491 9.27705 17.507 9.19384C17.9303 9.05748 18.257 9.1267 18.6951 9.1254C18.5966 8.46902 18.6546 6.74614 18.7988 6.1092C19.2291 4.20823 20.9554 2.66422 22.9976 2.50479C23.4007 2.47342 24.2715 2.58541 24.553 2.43661C23.4158 1.77349 22.4006 1.24906 21.0238 0.787876C19.6182 0.317364 18.2228 0.0620176 16.8231 -0.000976562H15.4264C14.2596 0.0506113 13.0865 0.230002 11.8995 0.523716C10.5611 0.855018 9.77117 1.25269 8.62483 1.81108L8.29534 1.98736C8.19243 2.06668 8.27357 1.98684 8.1875 2.09002V2.09053Z" fill="#2CB3CD"/>
<path fill-rule="evenodd" clip-rule="evenodd" d="M14.3567 19.7216C15.0084 19.426 14.9825 20.0775 15.8149 20.1247C16.7699 20.1786 16.6947 19.4999 17.3921 19.6806C17.8564 20.5659 16.0168 21.235 14.8443 20.5929C14.4946 20.4015 14.2222 20.2019 14.357 19.7218L14.3567 19.7216ZM15.2902 18.4586C14.9434 18.2027 15.031 17.6876 15.4924 17.7418C15.8483 17.7835 15.6534 17.9764 16.0371 17.8639C16.2932 17.7887 16.1485 17.679 16.5506 17.7693C17.1432 18.4083 15.9106 18.9161 15.2902 18.4588V18.4586ZM14.26 16.3694C14.3274 17.2404 13.2964 17.3799 12.9288 16.8192C12.5135 16.1859 13.2163 15.4421 13.7848 15.7304C13.9953 15.6679 14.2429 15.6453 14.3551 15.8457C14.4391 15.9958 14.4283 16.0176 14.3837 16.17C14.3295 16.3549 14.3946 16.1615 14.3142 16.3007C14.3093 16.309 14.2911 16.3448 14.2875 16.3359C14.2839 16.3271 14.2683 16.3572 14.2603 16.3691L14.26 16.3694ZM18.9444 16.3665L18.9719 16.5952C18.8155 17.6093 16.9579 17.0491 17.6518 15.9637C17.7892 15.7488 18.0899 15.637 18.3588 15.6949L18.4933 15.7571C19.0025 15.5388 19.3358 15.9295 18.9441 16.3665H18.9444ZM12.0962 14.5462C11.8592 15.6954 11.9023 16.7121 11.9054 17.9995C11.9082 19.1629 12.2211 20.093 12.6909 20.864C13.3866 22.0059 15.2881 23.8354 17.3825 23.3019L17.3952 23.2715C19.1196 22.8347 20.189 21.7509 20.9224 20.2237C21.0245 20.0111 20.9491 20.07 21.145 19.9818L21.0416 19.9035C21.4717 19.0416 21.319 18.0886 21.4149 17.0193C21.3485 16.9545 21.3789 17.0183 21.3537 16.8674L21.3506 16.2496C21.3498 15.9798 21.2941 15.6969 21.2892 15.4475C21.3205 15.2518 21.2902 14.8661 21.1935 14.6846C20.9654 14.2569 19.5925 14.8713 18.1286 14.3069C16.9721 13.861 16.7041 13.0675 16.4386 12.8096C16.1358 13.1375 16.0171 13.3859 15.6887 13.6231C15.3939 13.8359 15.1492 14.0078 14.7593 14.197C13.9513 14.5887 13.0548 14.5825 12.0964 14.5464L12.0962 14.5462Z" fill="#FFBDA9"/>
<path fill-rule="evenodd" clip-rule="evenodd" d="M0.749899 10.2904C1.04309 10.153 1.13953 10.0413 1.57556 10.0143C1.57556 9.27733 1.54005 8.81589 1.65696 8.0877C1.76584 7.41032 1.64089 7.56197 3.21834 7.54927C4.86318 7.54823 6.54458 7.58426 8.18503 7.54149C10.333 7.48549 11.1973 6.3643 11.7047 6.14577C11.7353 6.36404 12.0876 6.85659 12.2843 7.58556C12.4466 8.1875 12.4896 8.83041 12.4798 9.48135L13.2769 9.22574C13.2585 7.5573 13.5356 6.64635 12.7289 5.45853C12.6706 5.37273 12.662 5.35406 12.6003 5.27266L12.5254 5.1796C12.5205 5.17338 12.506 5.15627 12.5021 5.1516C12.4982 5.14693 12.4863 5.13371 12.479 5.12438C12.8292 4.62224 13.5019 2.88433 13.1852 2.13255C12.753 2.03689 8.95055 2.0921 8.1871 2.09055C7.37647 1.94641 5.09105 2.04726 4.44011 2.1901C2.36312 2.64635 1.08302 4.27331 0.774267 6.3993C0.639206 7.32943 0.749381 9.24959 0.749381 10.2907L0.749899 10.2904Z" fill="#FFB42D"/>
<path fill-rule="evenodd" clip-rule="evenodd" d="M18.6952 9.12601C18.2571 9.1273 17.9304 9.05809 17.5071 9.19444C17.2494 9.2774 16.8619 9.45835 16.8124 9.60533C16.5622 9.48919 16.4077 9.30669 16.1166 9.19496C15.6181 9.00365 13.7744 9.11304 13.2774 9.22633L12.4803 9.48194C12.1936 9.6621 12.0245 9.72043 11.7332 9.91875C9.35182 11.5397 9.72201 13.6012 9.64916 15.8379L9.63672 16.928L9.67923 17.2419C9.89958 17.1561 10.1189 17.0179 10.4362 17.0088C10.4362 16.0466 10.4186 15.5086 10.6335 14.5666L12.0953 14.5464C13.0537 14.5821 13.9501 14.5886 14.7582 14.1969C15.1481 14.0079 15.3928 13.8358 15.6875 13.623C16.0157 13.386 16.1347 13.1377 16.4375 12.8095C16.703 13.0674 16.9707 13.8609 18.1275 14.3068C19.5916 14.8712 20.9643 14.257 21.1924 14.6845C21.2891 14.8657 21.3194 15.2515 21.288 15.4475L21.3394 15.5307C21.3451 15.5442 21.3547 15.5613 21.3601 15.5773C21.44 15.8112 21.3819 16.6498 21.4138 17.0195C21.7793 17.0329 21.8693 17.1213 22.1453 17.2525L22.1417 16.1383C22.1026 13.6683 22.6013 11.1999 20.2298 9.70721C19.9994 9.5623 19.7103 9.47649 19.489 9.31214L19.4921 9.00391C19.4835 9.03061 19.4581 9.14363 19.4449 9.17682C19.3819 9.33469 19.4648 9.20274 19.3759 9.29503L18.6947 9.12601H18.6952Z" fill="#7C3E2C"/>
<path fill-rule="evenodd" clip-rule="evenodd" d="M18.6957 9.12557L19.377 9.29459C19.4659 9.2023 19.3829 9.33426 19.4459 9.17638C19.4591 9.1432 19.4845 9.03017 19.4931 9.00347L19.6559 7.9432C21.2823 7.94812 23.2536 8.18429 24.5236 7.14605C24.9383 6.80697 25.3508 6.27709 25.4594 6.21436C25.4682 6.22136 25.4801 6.22421 25.4827 6.23873L25.5999 6.3979C25.6676 6.4977 25.7223 6.57185 25.7819 6.65376C26.9544 8.26724 28.7102 7.87787 30.1803 7.9445C30.7115 10.5975 29.9312 10.2356 30.7576 10.4941C30.9513 10.5547 31.0177 10.6164 31.1882 10.6989C31.1882 9.73477 31.2663 6.34968 31.0656 5.55901C30.9669 5.16938 30.7141 4.5944 30.5109 4.3012C30.0494 3.63497 29.3959 3.03743 28.5718 2.74035C27.8431 2.47748 26.1933 2.28124 25.8127 2.99906C24.8813 2.29057 24.9987 2.63276 24.5534 2.43652C24.2718 2.58532 23.4011 2.47308 22.998 2.5047C20.9557 2.66413 19.2295 4.2084 18.7991 6.10911C18.655 6.74605 18.5969 8.46893 18.6954 9.12531L18.6957 9.12557Z" fill="#232E7A"/>
<path fill-rule="evenodd" clip-rule="evenodd" d="M5.47513 12.714C6.11129 12.3966 6.10222 13.0691 6.94058 13.116C7.98893 13.1746 7.78984 12.4799 8.52581 12.6722C8.95225 13.5458 7.09379 14.2707 5.97519 13.5858C5.626 13.3721 5.35017 13.2081 5.47513 12.714ZM6.90092 10.8607C7.24518 10.9605 7.16482 10.7684 7.44842 10.7352C7.8702 10.686 7.96586 11.1539 7.66385 11.4128C6.9875 11.9928 5.69729 11.2228 6.36275 10.793C6.66061 10.6007 6.68627 10.7982 6.90092 10.8604V10.8607ZM10.1245 9.34C10.0439 10.1996 9.20086 10.4169 8.76301 9.79729C8.5621 9.51291 8.63702 9.13132 8.84726 8.90941C9.00721 8.74065 9.78154 8.44046 9.57519 8.86042C9.58997 8.84901 9.60474 8.83061 9.61511 8.82179C10.0789 8.42257 10.4203 8.87882 10.1243 9.34H10.1245ZM4.82756 8.91745C4.83844 8.90423 4.84881 8.88401 4.85607 8.87442C5.21252 8.40339 5.71492 8.77669 5.42095 9.34078C5.37143 9.72834 5.29755 9.94454 5.00798 10.0692C3.79813 10.5893 3.4168 8.41713 4.92632 8.70358L4.82756 8.91719V8.91745ZM3.21874 7.54998C2.96728 9.30734 3.02276 9.15646 3.02898 11.0004C3.03572 13.0113 4.03196 14.6989 5.63222 15.6876C6.79256 16.4044 7.37454 16.4272 8.52373 16.3243L9.64933 15.838C9.72218 13.6013 9.35199 11.5399 11.7333 9.91888C12.0247 9.72056 12.1937 9.66223 12.4804 9.48206C12.4903 8.83112 12.4473 8.18822 12.285 7.58628C12.0885 6.85731 11.7359 6.36476 11.7053 6.14648C11.198 6.36528 10.3337 7.48621 8.18569 7.54221C6.54525 7.58498 4.86385 7.54895 3.219 7.54998H3.21874Z" fill="#FFBDA9"/>
<path fill-rule="evenodd" clip-rule="evenodd" d="M7.989 29.8746C8.24097 29.9957 8.44629 30.1297 8.72885 30.2705L11.1164 31.2579C12.1788 31.6143 13.6393 31.9099 14.9728 31.9996C14.9438 31.3896 14.9645 30.7389 14.9645 30.1245C14.9645 29.6392 14.8359 28.6886 15.0876 28.4107C14.6819 27.5467 15.2201 27.0342 15.532 26.4281C15.3254 26.3 15.174 26.2992 14.9484 26.1142C14.7952 25.9884 14.6539 25.815 14.5611 25.6234C14.3327 25.1519 14.4512 24.5689 14.4048 23.9822C13.8648 24.0156 12.7763 23.8917 12.3724 24.0522C12.3237 24.2461 12.3019 24.307 12.4592 24.4714C11.5804 24.5219 10.9391 24.4177 10.1627 24.7291C7.83423 25.6633 7.95556 27.8111 7.989 29.8741V29.8746Z" fill="#EBEBF0"/>
<path fill-rule="evenodd" clip-rule="evenodd" d="M18.7198 28.0902C18.7904 27.8154 18.9783 27.8447 19.3182 27.8514C20.2283 27.8693 20.5695 27.7529 20.5695 28.2496C20.5695 28.8943 20.4852 28.7836 19.8765 28.794C19.5613 28.7994 19.1657 28.8557 18.8751 28.7605C18.7045 28.6068 18.6416 28.3958 18.7198 28.0904V28.0902ZM16.2737 26.4277C16.3862 26.6563 16.6732 27.0597 16.7118 27.3109C16.7318 27.4416 16.7307 27.8045 16.7232 27.9447C16.7069 28.2558 16.6841 28.2143 16.5972 28.4108C16.8489 28.6978 16.7211 29.6347 16.7211 30.1244C16.7211 30.7471 16.731 31.3775 16.7172 31.9994C17.3946 31.9994 18.1495 31.8794 18.7766 31.7762C19.4535 31.665 19.9849 31.5232 20.5983 31.348C21.7716 31.013 22.837 30.5093 23.8136 29.9992C23.9139 27.7793 23.9828 25.6194 21.6191 24.6848C21.1605 24.5036 19.9245 24.3178 19.4014 24.5106C19.4483 24.2861 19.5188 24.2937 19.4457 24.0479C19.1408 23.9149 17.8286 23.9722 17.3793 24.0023C17.4084 24.5723 17.4426 25.2339 17.2204 25.6562C16.9319 26.2047 16.7439 26.143 16.2734 26.4274L16.2737 26.4277Z" fill="#EBEBF0"/>
<path fill-rule="evenodd" clip-rule="evenodd" d="M9.63699 16.9274C9.58333 17.3826 9.71113 17.2305 9.48067 17.5421C9.36894 17.693 9.28884 17.8125 9.24218 18.0401C9.11489 18.662 9.32384 18.9837 9.33187 19.4285C9.70906 19.6896 9.70595 19.9654 10.3577 20.0103C9.92786 19.4651 9.91334 19.4122 9.9136 18.4994C9.9136 18.1757 9.88871 17.8913 9.9797 17.6186C10.0925 17.28 10.1943 17.1133 10.4704 17.0869C10.4901 17.6587 10.4772 18.144 10.5267 18.6856C10.6213 19.7204 10.9581 19.7451 10.712 19.9711C10.8764 20.0914 10.9303 20.2661 11.0485 20.509C11.512 21.4607 12.2993 22.2578 13.1766 22.7613C13.5942 23.0008 13.9838 23.0786 14.3924 23.295L14.4054 23.9825C14.4518 24.5692 14.3333 25.1522 14.5617 25.6237C14.6545 25.8153 14.7955 25.9887 14.949 26.1145C15.1745 26.2996 15.3259 26.3003 15.5325 26.4284L16.2739 26.4281C16.7444 26.1438 16.9324 26.2055 17.2209 25.6569C17.4431 25.2346 17.4089 24.5731 17.3798 24.003L17.3819 23.3025C15.2875 23.8361 13.3863 22.0069 12.6903 20.8647C12.2205 20.0937 11.9076 19.1636 11.9048 18.0001C11.9014 16.7128 11.8586 15.6961 12.0956 14.5469L10.6338 14.5671C10.4188 15.5092 10.4365 16.0471 10.4365 17.0094C10.1192 17.0184 9.8996 17.1563 9.67951 17.2424L9.63699 16.9285V16.9274Z" fill="#E09380"/>
<path fill-rule="evenodd" clip-rule="evenodd" d="M0.751053 10.2903C0.499854 10.514 0.34509 10.7764 0.315019 11.1883C0.274319 11.7477 0.322537 11.9525 0.438415 12.3473C0.449562 12.3595 0.466153 12.3621 0.471338 12.3847C0.502187 12.5179 1.01936 12.9672 1.48521 13.0001C1.05384 12.485 1.0388 12.3785 1.03854 11.4991C1.03854 10.9705 1.02144 10.2167 1.59875 10.037C1.60523 10.5988 1.59564 11.1015 1.64749 11.623C1.69752 12.1265 1.87225 12.5477 1.93835 12.9529C2.25125 14.07 3.39577 15.2246 4.31243 15.7532C4.73239 15.9953 5.10491 16.0728 5.52487 16.2875L5.54561 16.912C5.67004 18.3388 5.28404 18.5602 6.48689 19.321C6.6471 19.4224 6.5587 19.3508 6.64865 19.4488L7.40225 19.4208C7.53187 19.2956 7.75429 19.2433 7.92124 19.1061C8.06486 18.9882 8.23777 18.8135 8.34431 18.5993C8.58255 18.12 8.45993 17.4973 8.50789 16.9203L8.52422 16.3235C7.37503 16.4262 6.79305 16.4036 5.63271 15.6868C4.03245 14.6984 3.03647 13.0105 3.02947 10.9996C3.02325 9.1559 2.96777 9.30652 3.21923 7.54916C1.64179 7.56186 1.76648 7.41021 1.65786 8.08759C1.54094 8.81579 1.57646 9.27722 1.57646 10.0142C1.14042 10.0412 1.04399 10.1529 0.750794 10.2903H0.751053Z" fill="#E09380"/>
<path fill-rule="evenodd" clip-rule="evenodd" d="M0.187686 18.3842C0.461957 18.2489 0.673752 18.0005 1.06131 17.8152C1.37913 17.6633 1.78872 17.515 2.20998 17.5114C2.52573 17.3488 3.15567 17.4771 3.54971 17.4375C3.42839 17.2796 3.34984 17.1951 3.39028 16.9525L5.54478 16.9123L5.52404 16.2878C5.10382 16.0731 4.73156 15.9959 4.3116 15.7535C3.39469 15.2249 2.25042 14.07 1.93752 12.9532L1.48438 13.0004C1.01854 12.9672 0.501361 12.5182 0.470512 12.385C0.465327 12.3624 0.448736 12.3601 0.437589 12.3477C0.174465 12.8755 0.0324044 14.1802 0 15.4766V16.6105C0.0163318 17.2314 0.0601426 17.7898 0.129877 18.1825C0.133247 18.202 0.135839 18.2186 0.139728 18.2367L0.187427 18.3842H0.187686Z" fill="#2CB3CD"/>
<path fill-rule="evenodd" clip-rule="evenodd" d="M31.165 13.1035L31.1635 15.8501C30.6955 15.9548 28.6878 15.8916 28.1011 15.8695C27.8204 16.0196 27.6044 16.192 27.2822 16.3437C27.0478 16.4539 26.583 16.5762 26.4023 16.7273L26.4125 17.8511L29.5002 17.8638C29.9388 17.8706 30.3593 17.9699 30.7352 18.141C30.9242 18.227 31.0937 18.3105 31.2633 18.4251C31.4512 18.5521 31.5648 18.6882 31.7511 18.7727C31.9254 18.4334 31.9917 17.6183 32.001 16.7279V16.2563C31.992 15.321 31.9316 14.38 31.8764 13.8745L31.6262 12.3701C31.5207 12.5184 31.5225 12.6231 31.4147 12.7883C31.3195 12.934 31.249 12.9811 31.1655 13.1032L31.165 13.1035Z" fill="#2CB3CD"/>
<path fill-rule="evenodd" clip-rule="evenodd" d="M14.9726 31.9993H16.7173C16.7307 31.3776 16.7212 30.7469 16.7212 30.1242C16.7212 29.6348 16.849 28.6976 16.5972 28.4107C16.1874 28.4765 15.4973 28.477 15.0877 28.4102C14.8357 28.6883 14.9646 29.6387 14.9646 30.124C14.9646 30.7384 14.9438 31.389 14.9729 31.999L14.9726 31.9993Z" fill="#232E7A"/>
<path fill-rule="evenodd" clip-rule="evenodd" d="M3.55091 17.4376C3.91021 18.0483 4.23374 18.6023 4.5933 19.219C4.78928 19.5553 5.43892 20.8237 5.68857 20.9663C5.92732 20.8102 6.44994 19.7868 6.64903 19.449C6.55908 19.351 6.64748 19.4225 6.48727 19.3212C5.28442 18.5603 5.67042 18.3389 5.54599 16.9121L3.39148 16.9523C3.3513 17.1949 3.42959 17.2794 3.55091 17.4373V17.4376Z" fill="#FBF1B6"/>
<path fill-rule="evenodd" clip-rule="evenodd" d="M28.0999 15.8696C28.6865 15.8916 30.6946 15.9548 31.1622 15.8501L31.1638 13.1035C30.7521 13.3104 30.6277 13.4291 30.0278 13.3508C29.654 14.0699 29.2898 14.8197 28.6824 15.3692C28.4755 15.5564 28.2956 15.6466 28.0996 15.8693L28.0999 15.8696Z" fill="#3242AE"/>
<path fill-rule="evenodd" clip-rule="evenodd" d="M7.4026 19.4208L7.43993 19.463C7.55788 19.7433 7.72872 19.9945 7.87415 20.2503C8.01077 20.4906 8.13805 20.8201 8.37603 20.9655C8.56579 20.8647 8.67104 20.5858 8.86884 20.2428C9.0166 19.9864 9.20947 19.6945 9.33235 19.428C9.32431 18.9832 9.11563 18.6615 9.24265 18.0396C9.28932 17.812 9.36968 17.6924 9.48115 17.5416C9.71161 17.2302 9.58381 17.3824 9.63747 16.9269L8.50798 16.9199C8.45976 17.497 8.58264 18.1197 8.3444 18.599C8.23786 18.8131 8.06495 18.9876 7.92133 19.1058C7.75438 19.2429 7.53196 19.2953 7.40234 19.4205L7.4026 19.4208Z" fill="#FBF1B6"/>
<path fill-rule="evenodd" clip-rule="evenodd" d="M15.0889 28.4104C15.4987 28.4772 16.1885 28.4765 16.5984 28.4109C16.6852 28.2144 16.7078 28.2559 16.7244 27.9448C16.7316 27.8048 16.7329 27.4416 16.713 27.311C16.6743 27.0598 16.3874 26.6564 16.2749 26.4277L15.5334 26.428C15.2216 27.0341 14.6831 27.5466 15.0891 28.4106L15.0889 28.4104Z" fill="#3242AE"/>
<path fill-rule="evenodd" clip-rule="evenodd" d="M23.3261 13.4995C23.4316 13.8956 24.4076 14.2966 25.065 14.2523C26.8522 14.132 26.8719 12.4465 25.7471 13.2431C24.9183 13.83 24.3324 13.374 23.899 13.0961C23.555 12.8755 23.2286 13.134 23.3261 13.4995Z" fill="#B2705B"/>
<path fill-rule="evenodd" clip-rule="evenodd" d="M0.1875 18.3843C0.1875 18.8027 0.472659 20.0872 0.601499 20.3747C0.825737 19.47 0.998388 19.0371 1.54175 18.4789C1.82094 18.192 2.75756 17.4949 3.34473 17.534L2.20979 17.5117C1.78854 17.5153 1.37895 17.6636 1.06112 17.8155C0.673307 18.0006 0.461512 18.2492 0.1875 18.3846V18.3843Z" fill="#3242AE"/>
<path fill-rule="evenodd" clip-rule="evenodd" d="M5.47591 12.7137C5.35095 13.208 5.62678 13.3719 5.97597 13.5855C7.09457 14.2704 8.95303 13.5453 8.52659 12.6719C7.79088 12.4796 7.98971 13.1743 6.94136 13.1157C6.103 13.0688 6.11207 12.3964 5.47591 12.7137Z" fill="#E09380"/>
<path fill-rule="evenodd" clip-rule="evenodd" d="M14.3554 19.7213C14.2206 20.2014 14.4933 20.401 14.8428 20.5923C16.0153 21.2345 17.8548 20.5654 17.3906 19.6801C16.6935 19.4997 16.7684 20.1783 15.8134 20.1242C14.981 20.077 15.0069 19.4258 14.3552 19.721L14.3554 19.7213Z" fill="#E09380"/>
<path fill-rule="evenodd" clip-rule="evenodd" d="M22.1459 17.2526C22.2312 17.4105 22.422 17.7197 22.6253 17.854L23.4196 17.8463L23.4118 16.688L22.1426 16.1387L22.1462 17.2529L22.1459 17.2526Z" fill="#2CB3CD"/>
<path fill-rule="evenodd" clip-rule="evenodd" d="M11.0142 21.8573C10.6909 21.7505 10.0851 21.7827 9.68714 21.7925C9.08624 21.8076 9.1132 22.1441 9.23996 22.6439C9.52253 22.7642 9.74858 22.74 10.1338 22.74L10.8509 22.7133C11.1661 22.6091 11.0751 22.1026 11.0139 21.8571L11.0142 21.8573Z" fill="#FFB42D"/>
<path fill-rule="evenodd" clip-rule="evenodd" d="M18.8761 28.761C19.1667 28.8562 19.5623 28.7999 19.8775 28.7945C20.4862 28.7839 20.5704 28.8948 20.5704 28.2501C20.5704 27.7537 20.2295 27.8701 19.3191 27.8519C18.9792 27.8452 18.7913 27.8159 18.7208 28.0907C18.6425 28.396 18.7055 28.6071 18.8761 28.7608V28.761Z" fill="#FFB42D"/>
<path fill-rule="evenodd" clip-rule="evenodd" d="M1.48383 13.0002L1.93697 12.953C1.87086 12.5478 1.6964 12.1265 1.64611 11.6231C1.594 11.1015 1.60385 10.5989 1.59737 10.0371C1.02005 10.217 1.03716 10.9706 1.03716 11.4992C1.03716 12.3783 1.05246 12.4848 1.48383 13.0002Z" fill="#FFBDA9"/>
<path fill-rule="evenodd" clip-rule="evenodd" d="M10.3575 20.0103L10.7117 19.9712C10.9577 19.7449 10.6207 19.7205 10.5263 18.6856C10.4768 18.1441 10.49 17.6588 10.47 17.0869C10.1942 17.1136 10.0923 17.28 9.97931 17.6186C9.88858 17.8913 9.9132 18.1757 9.9132 18.4995C9.91295 19.4123 9.92772 19.4649 10.3573 20.0103H10.3575Z" fill="#FFBDA9"/>
<path fill-rule="evenodd" clip-rule="evenodd" d="M27.9195 21.7198C28.2047 21.8009 29.2989 21.8045 29.6263 21.7009L29.5706 20.9416C29.3707 20.9099 28.4862 20.8508 28.3102 20.8604C27.7868 20.8882 27.862 21.2884 27.9195 21.7198Z" fill="#FFB42D"/>
<path fill-rule="evenodd" clip-rule="evenodd" d="M23.2867 9.73764C22.7208 9.92533 22.5875 9.52481 22.7978 9.12014C22.1183 8.79713 21.5037 9.69175 21.9783 10.2711C22.3986 10.7844 23.2911 10.5566 23.2867 9.73764Z" fill="#232E7A"/>
<path fill-rule="evenodd" clip-rule="evenodd" d="M5.42032 9.34109C5.07424 9.45256 4.72298 9.32865 4.82693 8.9175L4.9257 8.70389C3.41617 8.41744 3.79751 10.5896 5.00736 10.0695C5.29718 9.94511 5.37107 9.72865 5.42032 9.34109Z" fill="#4C2C21"/>
<path fill-rule="evenodd" clip-rule="evenodd" d="M14.2595 16.3698C13.7317 16.4841 13.5253 16.1134 13.784 15.731C13.2155 15.4425 12.5128 16.1862 12.928 16.8198C13.2956 17.3805 14.3266 17.2411 14.2592 16.37L14.2595 16.3698Z" fill="#232E7A"/>
<path fill-rule="evenodd" clip-rule="evenodd" d="M18.943 16.3666C18.3805 16.5086 18.2384 16.0962 18.4922 15.7571L18.3577 15.6949C18.0891 15.6368 17.7881 15.7488 17.6507 15.9637C16.9568 17.0492 18.8144 17.6096 18.9708 16.5952L18.9433 16.3666H18.943Z" fill="#232E7A"/>
<path fill-rule="evenodd" clip-rule="evenodd" d="M27.9984 9.73963C27.7449 9.82595 27.6723 9.78862 27.4647 9.72433C27.4045 9.51694 27.3814 9.46121 27.4312 9.21079L27.4911 9.08817C26.6185 8.96633 26.2351 9.80081 26.7489 10.3146C27.2267 10.7926 27.9925 10.5083 27.9982 9.73937L27.9984 9.73963Z" fill="#232E7A"/>
<path fill-rule="evenodd" clip-rule="evenodd" d="M10.1254 9.33962C9.64041 9.51642 9.34592 9.168 9.57638 8.86003C9.78273 8.44007 9.00839 8.74027 8.84845 8.90903C8.63821 9.13093 8.56329 9.51253 8.76419 9.79691C9.20204 10.4165 10.0451 10.1992 10.1257 9.33962H10.1254Z" fill="#4C2C21"/>
<path fill-rule="evenodd" clip-rule="evenodd" d="M25.7317 11.4459C25.6747 10.823 25.0188 11.3153 24.8475 11.2728C24.6559 11.2253 24.6403 11.0483 24.3391 11.1424C24.1937 11.1877 24.0586 11.3435 24.0962 11.5618C24.2072 12.2055 25.7991 12.185 25.7315 11.4459H25.7317Z" fill="#B2705B"/>
<path fill-rule="evenodd" clip-rule="evenodd" d="M16.5502 17.7693C16.1479 17.6791 16.2928 17.789 16.0367 17.8639C15.653 17.9764 15.848 17.7835 15.492 17.7418C15.0306 17.6879 14.943 18.2027 15.2898 18.4586C15.9104 18.9161 17.1428 18.408 16.5502 17.769V17.7693Z" fill="#E09380"/>
<path fill-rule="evenodd" clip-rule="evenodd" d="M6.36299 10.7928C5.69753 11.2224 6.98774 11.9926 7.66409 11.4126C7.9661 11.1537 7.87044 10.6857 7.44866 10.735C7.16532 10.7679 7.24542 10.96 6.90116 10.8605C6.68651 10.7983 6.66059 10.6007 6.36299 10.7931V10.7928Z" fill="#E09380"/>
<path fill-rule="evenodd" clip-rule="evenodd" d="M8.52414 16.3242L8.50781 16.921L9.6373 16.928L9.64948 15.8379L8.52414 16.3242Z" fill="#2CB3CD"/>
<path fill-rule="evenodd" clip-rule="evenodd" d="M27.4295 9.21022C27.3797 9.46038 27.4028 9.51612 27.4629 9.72376C27.6703 9.78805 27.7432 9.82538 27.9967 9.73906C28.0952 9.57367 28.1411 9.42331 28.0716 9.169C27.7854 9.02668 27.697 8.97717 27.4295 9.21022Z" fill="#EBEBF0"/>
<path fill-rule="evenodd" clip-rule="evenodd" d="M13.7851 15.7307C13.5264 16.1134 13.7325 16.4838 14.2606 16.3695C14.2686 16.3578 14.2844 16.3275 14.2878 16.3363C14.2914 16.3454 14.3096 16.3094 14.3145 16.3011C14.3948 16.1618 14.3298 16.3552 14.384 16.1704C14.4285 16.0177 14.4394 15.9959 14.3554 15.8461C14.2432 15.6457 13.9956 15.668 13.7851 15.7307Z" fill="#EBEBF0"/>
<path fill-rule="evenodd" clip-rule="evenodd" d="M18.4923 15.7567C18.2385 16.0958 18.3806 16.5083 18.9431 16.3662C19.3348 15.9291 19.0015 15.5385 18.4923 15.7567Z" fill="#EBEBF0"/>
<path fill-rule="evenodd" clip-rule="evenodd" d="M22.7992 9.11922C22.5889 9.52389 22.7222 9.92441 23.2881 9.73672C23.3449 9.64055 23.5248 9.45519 23.3565 9.21073C23.2204 9.01294 22.9962 9.06608 22.7992 9.11922Z" fill="#EBEBF0"/>
<path fill-rule="evenodd" clip-rule="evenodd" d="M9.57591 8.86059C9.34545 9.16856 9.6402 9.51697 10.125 9.34018C10.421 8.879 10.0793 8.42274 9.61583 8.82196C9.60546 8.83104 9.59043 8.84944 9.57591 8.86059Z" fill="#EBEBF0"/>
<path fill-rule="evenodd" clip-rule="evenodd" d="M4.82714 8.91722C4.72319 9.3281 5.07471 9.45228 5.42053 9.34081C5.7145 8.77645 5.2121 8.40341 4.85566 8.87444C4.8484 8.88403 4.83803 8.904 4.82714 8.91748V8.91722Z" fill="#EBEBF0"/>
</svg>
