<svg width="32" height="32" viewBox="0 0 32 32" fill="none" xmlns="http://www.w3.org/2000/svg">
<g clip-path="url(#clip0_4869_12684)">
<path fill-rule="evenodd" clip-rule="evenodd" d="M4.57519 14.166C5.67517 14.4126 10.3846 14.0205 10.8784 14.2474C11.4165 14.3637 11.2681 15.0928 11.2681 15.6249C11.2681 16.2082 11.2681 16.7915 11.2681 17.3747C11.2681 18.5275 11.2986 19.7211 11.2628 20.8686C11.2848 21.295 11.3494 22.731 11.1254 22.9461C10.9014 23.1612 9.51181 23.1155 9.06671 23.1155C7.57592 23.1155 6.08017 23.1009 4.59045 23.1151C4.167 23.5239 4.19966 23.6053 4.19966 24.386C7.48861 24.4435 10.8315 24.3891 14.1265 24.3891H21.6202C22.2392 24.3891 23.5837 24.1439 23.5564 24.874C23.5301 25.5751 22.0667 25.3233 21.492 25.3233C15.7607 25.3233 9.9019 25.2723 4.20072 25.325L4.2245 26.1618L21.5559 26.1625C22.1277 26.1625 23.5582 25.9121 23.5571 26.6218C23.556 27.3402 22.182 27.0967 21.5559 27.0967H4.26319C4.38103 27.3707 4.38849 27.3461 4.59826 27.547C4.67813 27.6235 4.70794 27.6537 4.79561 27.7274C5.01284 27.9103 4.88825 27.7181 5.03165 27.9619C5.63649 27.8732 6.685 27.9332 7.3374 27.9332C9.79932 27.9332 23.0648 27.8525 23.3431 28.0073C23.6636 28.1857 23.5905 28.6412 23.3839 28.7825C23.1631 28.9338 22.6208 28.8677 22.3244 28.8677H6.24842C6.38898 29.0862 7.21423 29.602 7.48577 29.7492C7.71542 29.6491 20.2426 29.7191 22.7759 29.7083C23.1944 29.7066 23.3424 29.7818 23.5411 29.9657C23.8176 29.8323 24.0771 29.6491 24.3092 29.4988L25.0326 29.0173C25.2864 28.831 26.2157 28.1372 26.3537 27.937L26.3417 11.29L4.16736 11.3039C4.33418 12.1802 3.85287 13.672 4.57519 14.1653V14.166Z" fill="#E8EEFE"/>
<path fill-rule="evenodd" clip-rule="evenodd" d="M7.54996 8.33061L23.9901 8.33303C26.6124 8.33303 26.3924 7.97696 26.3423 11.29L26.3544 27.9369C26.8151 27.6519 27.5754 26.7077 27.9755 26.2636C28.2264 25.9848 28.4632 25.6402 28.6782 25.3246C28.8845 25.0219 29.1738 24.6499 29.3299 24.3122C29.2518 23.0077 29.276 9.24433 29.37 9.08431V8.02822C28.6037 8.19379 28.3048 8.38187 27.3816 8.31952C26.7001 8.27346 26.1734 8.08642 25.6459 7.82144C25.177 7.58591 24.7231 7.19105 24.4125 6.83879C23.8779 6.23264 23.7565 5.60882 23.6138 5.49902H7.17407C7.17407 6.01997 7.17513 6.54091 7.17407 7.0622C7.17265 7.68012 7.10627 7.82248 7.44773 8.21319L7.55031 8.33061H7.54996Z" fill="#D2DCFA"/>
<path fill-rule="evenodd" clip-rule="evenodd" d="M4.26322 27.0981H21.5559C22.1821 27.0981 23.5557 27.3416 23.5571 26.6232C23.5582 25.9135 22.1278 26.1639 21.5559 26.1639L4.22453 26.1632L4.20075 25.3264C9.90193 25.2738 15.7607 25.3247 21.4921 25.3247C22.0667 25.3247 23.5298 25.5765 23.5564 24.8754C23.5838 24.1453 22.2392 24.3905 21.6202 24.3905H14.1265C10.8315 24.3905 7.48864 24.4449 4.19969 24.3874C4.19969 23.6063 4.16668 23.5249 4.59049 23.1166C4.33137 23.1114 3.99204 23.1457 3.81031 23.0622C3.51925 23.0244 3.41667 22.9202 3.36698 22.6258L3.37301 20.7872L3.37266 15.7874C3.36556 15.4732 3.35527 15.1209 3.36556 14.8089C3.37798 14.4282 3.43016 14.3496 3.72619 14.2377C3.94874 14.1262 4.26961 14.1698 4.57522 14.1667C3.8529 13.6731 4.33457 12.1813 4.16739 11.3053L0.996635 11.2949C-0.0600462 13.811 -0.329807 17.3228 0.445755 20.3508C0.836908 21.8776 1.3026 22.8994 1.95641 24.1266C2.41217 24.9825 3.36094 26.2474 4.04067 26.9696C4.1823 27.1203 4.046 27.0874 4.26322 27.0985V27.0981Z" fill="#BEC8F7"/>
<path fill-rule="evenodd" clip-rule="evenodd" d="M4.19436 9.18616C5.13994 9.29388 5.01465 10.4123 4.15638 10.4414C4.2405 10.6406 4.21601 11.0458 4.16703 11.3046L26.3414 11.2907C26.3918 7.97767 26.6118 8.33374 23.9891 8.33374L7.54898 8.33132L2.59709 8.27832L2.5332 8.35556L4.55392 8.39124C4.28487 8.67249 4.2256 8.69743 4.19436 9.18651V9.18616Z" fill="#47477F"/>
<path fill-rule="evenodd" clip-rule="evenodd" d="M7.10156 3.43362C8.06205 3.426 8.05176 4.61336 7.17326 4.68298V5.39512L23.5971 5.39893L23.4281 4.52677C20.8824 4.52677 18.3367 4.52677 15.791 4.52677C15.1692 4.52677 13.6717 4.78274 13.7554 4.01068C13.7973 3.62447 14.1253 3.58395 14.5068 3.58533H23.4693L23.7337 2.5625L21.7471 2.57012L9.64228 2.57047L7.59175 2.5625C7.05826 3.09141 7.38694 2.94628 7.10192 3.43362H7.10156Z" fill="#47477F"/>
<path fill-rule="evenodd" clip-rule="evenodd" d="M3.37242 15.7871C3.73376 16.1743 4.08658 16.21 4.76701 16.1199C4.67827 16.7375 4.39396 17.0271 4.53843 17.7936C4.64704 18.3682 4.94094 18.6668 5.15994 19.0357C5.43502 18.8542 5.71259 18.762 6.05512 19.0021C6.23295 19.1268 6.57405 19.4451 6.67273 19.6675L8.16422 21.0796C8.6221 20.9192 9.15666 19.9923 9.6078 19.8341C10.2726 19.6009 10.8423 20.6255 11.2622 20.8694C11.2981 19.7215 11.2675 18.5282 11.2675 17.3755C11.2675 16.7922 11.2675 16.2089 11.2675 15.6256C11.2675 15.0936 11.4159 14.3645 10.8778 14.2481L10.1541 14.254C10.2723 15.016 9.98333 15.4552 9.43742 15.6779C9.03171 15.8435 8.69025 15.6592 8.47622 15.741C8.3637 15.7839 8.04638 16.183 7.94486 16.2813C7.29247 16.9124 6.16622 16.9723 5.41621 16.3142C4.99276 15.9429 5.1571 16.157 4.76275 16.0053C4.2069 15.254 4.32404 15.0559 4.63852 14.2197L3.7263 14.2377C3.43028 14.3496 3.3781 14.4282 3.36568 14.8089C3.35538 15.1213 3.36568 15.4732 3.37278 15.7874L3.37242 15.7871Z" fill="#42C3FC"/>
<path fill-rule="evenodd" clip-rule="evenodd" d="M29.3299 24.3125C31.9054 20.1061 32.1173 14.3952 29.797 9.89582L29.37 9.08496C29.276 9.24464 29.2518 23.0084 29.3299 24.3128V24.3125Z" fill="#746BF9"/>
<path fill-rule="evenodd" clip-rule="evenodd" d="M23.7353 2.56225L23.4709 3.58508L23.4297 4.52652L23.5986 5.39868L23.6143 5.49947C23.757 5.60927 23.8783 6.23309 24.4129 6.83924C24.7235 7.1915 25.1778 7.58601 25.6463 7.82189C26.1738 8.08687 26.7005 8.27425 27.382 8.31997C28.3049 8.38232 28.6041 8.1939 29.3705 8.02868C30.2241 7.63208 31.306 6.82227 31.5481 5.95668C31.0447 5.93694 30.732 5.91858 30.4261 5.65603C30.3114 5.55766 30.1712 5.41704 30.0917 5.29615C29.9689 5.10911 29.9558 4.9723 29.7857 4.80465C29.6104 5.00243 28.0025 6.17663 27.7029 6.29959C27.573 6.43918 26.9628 6.86764 26.8042 6.93484C26.6036 7.134 26.2295 7.51362 25.8476 7.30961C25.6045 7.05226 25.7447 6.59747 25.7794 6.24902C25.8149 5.89676 25.8685 5.50709 25.8913 5.17181L26.172 2.77042C26.0027 2.66408 26.0932 2.72366 25.8561 2.6762C24.9506 2.49505 24.737 2.07767 24.6585 1.1875C24.5041 1.34614 24.2947 1.58687 24.1545 1.78534C23.9749 2.03957 23.8737 2.30178 23.7349 2.56259L23.7353 2.56225Z" fill="#E80054"/>
<path fill-rule="evenodd" clip-rule="evenodd" d="M6.24801 28.8686H22.324C22.62 28.8686 23.1627 28.9348 23.3835 28.7834C23.5897 28.6421 23.6632 28.1866 23.3427 28.0082C23.0644 27.8534 9.79891 27.9341 7.33699 27.9341C6.6846 27.9341 5.63644 27.8742 5.03125 27.9629C5.27119 28.0966 5.38513 28.2701 5.60698 28.4377C5.71843 28.5216 5.7667 28.5659 5.88987 28.6618C6.04569 28.7834 6.07551 28.8319 6.24801 28.8683V28.8686Z" fill="#BEC8F7"/>
<path fill-rule="evenodd" clip-rule="evenodd" d="M9.19505 30.6642L22.1968 30.6569C22.4974 30.5156 23.3763 30.118 23.5417 29.9656C23.3429 29.7816 23.1949 29.7065 22.7764 29.7082C20.2428 29.7189 7.71598 29.649 7.48633 29.7491C8.0475 30.1062 8.56395 30.333 9.1954 30.6638L9.19505 30.6642Z" fill="#BEC8F7"/>
<path fill-rule="evenodd" clip-rule="evenodd" d="M2.59801 8.27782L7.54989 8.33081L7.44731 8.21339C7.10585 7.82268 7.17223 7.68067 7.17365 7.0624C7.17507 6.54146 7.17365 6.02052 7.17365 5.49923H23.6134L23.5978 5.39843L7.174 5.39462L2.98207 5.3877C2.98207 5.92492 2.98065 6.46248 2.98207 6.99971C2.98278 7.24736 3.01543 7.57641 2.93131 7.76276C2.85499 7.93179 2.66971 8.08593 2.59766 8.27747L2.59801 8.27782Z" fill="#BEC8F7"/>
<path fill-rule="evenodd" clip-rule="evenodd" d="M22.1971 30.6572L9.19531 30.6645C9.87788 30.8488 10.8252 31.3514 12.0931 31.6094C13.1736 31.8293 14.2881 31.9689 15.4069 31.9998H16.3315C17.3148 31.9721 18.2948 31.8539 19.2513 31.6257C20.9395 31.2229 20.8688 31.1137 22.1967 30.6576L22.1971 30.6572Z" fill="#E8EEFE"/>
<path fill-rule="evenodd" clip-rule="evenodd" d="M2.98242 5.38811L7.17436 5.39503V4.68289C6.33242 4.56548 6.30048 3.58559 7.10266 3.43353C7.38768 2.94619 7.059 3.09132 7.59249 2.56241C6.35372 2.56241 5.11495 2.56795 3.87618 2.55964C3.15847 2.55479 2.9739 2.80175 2.98065 3.49796C2.98668 4.12732 2.98242 4.75806 2.98242 5.38741V5.38811Z" fill="#2D2D59"/>
<path fill-rule="evenodd" clip-rule="evenodd" d="M10.8788 14.2474C10.385 14.0202 5.67594 14.4123 4.5756 14.166C4.27034 14.1691 3.94912 14.1255 3.72656 14.237L4.63878 14.219C4.3243 15.0552 4.20716 15.2536 4.76301 16.0046C5.15771 16.1566 4.99337 15.9422 5.41647 16.3135C6.16648 16.9716 7.29273 16.9117 7.94512 16.2806C8.04664 16.1822 8.36396 15.7832 8.47648 15.7403C8.69051 15.6585 9.03197 15.8428 9.43768 15.6772C9.98359 15.4545 10.2725 15.0153 10.1543 14.2533L10.8781 14.2474H10.8788Z" fill="#8AE1FF"/>
<path fill-rule="evenodd" clip-rule="evenodd" d="M8.16505 21.0793C8.10187 21.338 7.62589 21.6896 7.41895 21.8918C6.08435 23.1942 6.48721 23.0449 5.41633 23.0425C4.89243 23.0414 4.3309 23.0425 3.81055 23.0615C3.99228 23.145 4.33161 23.1104 4.59072 23.1159C6.08044 23.1014 7.57619 23.1163 9.06698 23.1163C9.51243 23.1163 10.9021 23.162 11.1257 22.9469C11.3496 22.7314 11.285 21.2957 11.263 20.8694C10.8431 20.6255 10.2731 19.6009 9.60863 19.834C9.15749 19.9923 8.62294 20.9192 8.16505 21.0796V21.0793Z" fill="#89E36B"/>
<path fill-rule="evenodd" clip-rule="evenodd" d="M11.0265 9.40717C10.6059 9.62989 10.7457 10.1713 11.1539 10.2669C11.412 10.3271 21.396 10.3025 21.5408 10.2336C21.9199 10.0528 21.8918 9.48164 21.4833 9.37565C21.2203 9.30741 11.1841 9.32335 11.0265 9.40717Z" fill="#5F5F9A"/>
<path fill-rule="evenodd" clip-rule="evenodd" d="M13.0324 19.101C12.5766 19.2521 12.6136 19.8437 13.0065 19.9663C13.2386 20.0387 14.1455 20.0033 14.4476 20.0033C15.7946 20.0033 22.9493 20.0664 23.2563 19.9677C23.6816 19.8312 23.6535 19.2133 23.2545 19.0979C23.0199 19.03 13.1754 19.0536 13.032 19.101H13.0324Z" fill="#BEC8F7"/>
<path fill-rule="evenodd" clip-rule="evenodd" d="M13.0778 20.8749C12.5773 21.0519 12.5834 21.5842 12.9923 21.7346C13.2439 21.827 23.0987 21.7962 23.2684 21.7377C23.6964 21.5894 23.6379 20.9968 23.229 20.8724C23.0203 20.8091 13.2017 20.8312 13.0782 20.8749H13.0778Z" fill="#BEC8F7"/>
<path fill-rule="evenodd" clip-rule="evenodd" d="M13.3584 23.5474H22.9016C23.8429 23.5474 23.7815 22.6133 22.9016 22.6133H13.3584C13.0109 22.6133 12.7234 22.6819 12.7113 23.0639C12.6989 23.4557 12.9733 23.5474 13.3584 23.5474Z" fill="#BEC8F7"/>
<path fill-rule="evenodd" clip-rule="evenodd" d="M9.64258 2.57011L21.7474 2.56976L20.4586 2.0696C17.9927 1.25979 14.9473 1.18012 12.4012 1.69137C11.9338 1.78523 11.4123 1.92448 10.9793 2.05402L9.64258 2.57011Z" fill="#746BF9"/>
<path fill-rule="evenodd" clip-rule="evenodd" d="M12.9694 17.3572C12.5616 17.5879 12.6549 18.1092 13.072 18.2079L23.2821 18.1833C23.6377 18.042 23.6548 17.4317 23.2114 17.3181C22.9569 17.2526 13.1245 17.2696 12.9694 17.3575V17.3572Z" fill="#BEC8F7"/>
<path fill-rule="evenodd" clip-rule="evenodd" d="M18.065 15.9935C19.3992 15.9675 20.8173 16.0475 22.1334 15.9862C22.6935 15.9602 23.1322 15.6066 23.0776 15.0108C23.0534 14.7503 22.9108 14.5231 22.7063 14.3783C22.4852 14.2218 22.1955 14.2152 21.8789 14.2155L14.8311 14.1951C14.5553 14.1948 14.0654 14.1238 13.9004 14.28C14.8367 14.1792 16.9998 14.193 17.9795 14.262C17.6941 14.4701 17.3803 14.6146 17.4215 15.1726C17.4591 15.6797 17.7416 15.7711 18.065 15.9931V15.9935Z" fill="#FF4155"/>
<path fill-rule="evenodd" clip-rule="evenodd" d="M23.43 4.52643L23.4711 3.58499H14.5087C14.1271 3.58361 13.7992 3.62413 13.7573 4.01034C13.6735 4.78205 15.171 4.52643 15.7929 4.52643C18.3386 4.52643 20.8843 4.52643 23.43 4.52643Z" fill="#5F5F9A"/>
<path fill-rule="evenodd" clip-rule="evenodd" d="M5.16074 19.0351L3.37322 20.7863L3.36719 22.6249C4.68866 22.6664 4.38695 22.7755 5.51746 21.6613C5.78438 21.3984 6.06302 21.1448 6.30864 20.8698C6.74168 20.3845 6.51842 19.8982 6.67353 19.6665C6.57521 19.4442 6.23375 19.1258 6.05592 19.0011C5.7134 18.7611 5.43618 18.8532 5.16074 19.0347V19.0351Z" fill="#64D13B"/>
<path fill-rule="evenodd" clip-rule="evenodd" d="M18.0646 15.9938C17.7413 15.7718 17.4587 15.68 17.4211 15.1733C17.3796 14.6153 17.6934 14.4708 17.9791 14.2627C16.9994 14.1937 14.8364 14.1799 13.9 14.2807C13.0755 14.2627 12.6226 16.0014 14.381 15.9973C15.6073 15.9942 16.8394 16.0087 18.065 15.9942L18.0646 15.9938Z" fill="#E80054"/>
<path fill-rule="evenodd" clip-rule="evenodd" d="M27.3965 2.75515C27.5079 2.93388 27.5257 3.17841 27.6481 3.36719C27.7944 3.59302 27.9637 3.64532 28.1564 3.81643C28.6296 3.86839 29.0633 3.74646 29.2632 3.78179C29.223 3.53726 29.2326 3.6235 29.353 3.42988L30.662 1.18747C30.3727 0.830365 29.4985 0.23807 28.9348 0.1875C28.7187 0.642285 28.429 1.05862 28.1681 1.51375C27.936 1.91832 27.6854 2.3873 27.3968 2.7548L27.3965 2.75515Z" fill="#FEDC40"/>
<path fill-rule="evenodd" clip-rule="evenodd" d="M3.36719 22.625C3.41653 22.9194 3.51946 23.0237 3.81052 23.0614C4.33087 23.0424 4.8924 23.041 5.4163 23.0424C6.48718 23.0448 6.08432 23.1941 7.41892 21.8917C7.62621 21.6895 8.10184 21.3382 8.16502 21.0791L6.67353 19.667C6.51842 19.8984 6.74168 20.385 6.30864 20.8703C6.06337 21.1453 5.78438 21.3988 5.51746 21.6617C4.38731 22.7757 4.68866 22.6669 3.36719 22.6253V22.625Z" fill="#55BF28"/>
<path fill-rule="evenodd" clip-rule="evenodd" d="M1.95694 9.32745C2.71085 8.94298 3.30929 9.59069 2.94795 10.1539C2.6143 10.6741 1.75604 10.5127 1.75817 9.68698C1.58531 9.81964 1.63926 9.80336 1.54413 10.034C1.46924 10.2152 1.41742 10.2904 1.33755 10.4577C1.21332 10.7178 1.07028 11.0274 0.996094 11.2935L4.16685 11.3038C4.21583 11.0451 4.24032 10.6402 4.1562 10.4407C3.32597 10.2814 3.34763 9.2935 4.19418 9.18544C4.22541 8.69671 4.28469 8.67142 4.55374 8.39017L2.53302 8.35449C2.39069 8.48577 1.99953 9.12551 1.95658 9.3271L1.95694 9.32745Z" fill="#2D2D59"/>
<path fill-rule="evenodd" clip-rule="evenodd" d="M3.37305 20.787L5.16057 19.0357C4.94156 18.6672 4.64731 18.3683 4.53905 17.7936C4.39423 17.0271 4.67855 16.7376 4.76764 16.12C4.0872 16.21 3.73438 16.174 3.37305 15.7871L3.3734 20.787H3.37305Z" fill="#1AA9E8"/>
<path fill-rule="evenodd" clip-rule="evenodd" d="M29.8167 4.71096L29.7852 4.80448C29.9552 4.97213 29.9683 5.10894 30.0911 5.29598C30.1706 5.41687 30.3108 5.55749 30.4255 5.65586C30.7314 5.91841 31.0442 5.93677 31.5475 5.95651C31.7881 5.62608 32.0448 4.60082 31.9936 4.00367C31.9237 3.19039 31.7328 2.67915 31.4197 2.09863L29.8171 4.71062L29.8167 4.71096Z" fill="#FF4155"/>
<path fill-rule="evenodd" clip-rule="evenodd" d="M24.6582 1.18736C24.7366 2.07719 24.95 2.49457 25.8558 2.67606C26.0929 2.72352 26.0024 2.66394 26.1717 2.77028L26.2359 2.74672L27.8236 0C26.7474 0 26.0872 0.198471 25.2953 0.711446C24.8964 0.969839 24.9131 1.06544 24.6582 1.18736Z" fill="#FF4155"/>
<path fill-rule="evenodd" clip-rule="evenodd" d="M28.1565 3.81597C27.5616 3.75605 27.3877 4.01063 27.2301 4.47615C27.1165 4.8111 26.9064 5.30398 26.8691 5.6268C27.1964 5.84259 27.5304 6.04556 27.7018 6.29945C28.0014 6.17614 29.6093 5.00195 29.7847 4.80451L29.8163 4.71099C29.4812 4.53816 29.287 4.26487 29.2636 3.78203C29.0638 3.74635 28.63 3.86862 28.1569 3.81666L28.1565 3.81597Z" fill="#FCF8E9"/>
<path fill-rule="evenodd" clip-rule="evenodd" d="M25.8913 5.17201C25.9378 5.28632 25.9041 5.24025 26.0447 5.30294C26.0745 5.31611 26.2949 5.37568 26.3425 5.39092C26.5253 5.44877 26.6619 5.50141 26.8199 5.60359L26.8696 5.62715C26.9068 5.30433 27.117 4.81144 27.2306 4.4765C27.3885 4.01098 27.5621 3.7564 28.157 3.81632C27.9642 3.64521 27.7953 3.59291 27.6487 3.36707C27.5262 3.1783 27.5085 2.93342 27.397 2.75504C26.6729 2.8496 26.9931 2.8967 26.2356 2.74707L26.1714 2.77062L25.8906 5.17201H25.8913Z" fill="#FCECA8"/>
<path fill-rule="evenodd" clip-rule="evenodd" d="M29.2638 3.78182C29.2873 4.26501 29.4814 4.53795 29.8165 4.71079L31.4191 2.0988C31.3552 2.01048 31.3474 1.96995 31.2888 1.8792C31.2267 1.78291 31.1717 1.71468 31.1003 1.62358C30.9708 1.45802 30.8306 1.31254 30.6623 1.1875L29.3533 3.42991C29.2329 3.62353 29.2234 3.53728 29.2635 3.78182H29.2638Z" fill="#FFB233"/>
<path fill-rule="evenodd" clip-rule="evenodd" d="M26.2367 2.74672C26.9938 2.89636 26.6736 2.84925 27.3981 2.75469C27.6866 2.38719 27.9376 1.91855 28.1694 1.51364C28.4303 1.05851 28.7199 0.642172 28.9361 0.187387C28.9212 0.179074 28.897 0.15275 28.8892 0.166605L28.4285 0.0439891C28.2922 0.0183577 28.0508 0 27.824 0L26.2363 2.74672H26.2367Z" fill="#FFB233"/>
<path fill-rule="evenodd" clip-rule="evenodd" d="M8.07421 17.5549C6.88336 17.8268 7.27984 19.5077 8.47708 19.242C9.50181 19.0148 9.23276 17.2902 8.07421 17.5549Z" fill="#FEDC40"/>
<path fill-rule="evenodd" clip-rule="evenodd" d="M26.803 6.9349C26.3454 6.46107 26.7021 6.21757 26.8193 5.60345C26.661 5.50127 26.5243 5.44863 26.3419 5.39078C26.2943 5.37589 26.0735 5.31597 26.0441 5.3028C25.9032 5.24011 25.9372 5.28583 25.8907 5.17188C25.8677 5.50716 25.8144 5.89683 25.7789 6.24909C25.7438 6.59754 25.6039 7.05232 25.8471 7.30968C26.229 7.51404 26.6031 7.13407 26.8037 6.9349H26.803Z" fill="#47477F"/>
<path fill-rule="evenodd" clip-rule="evenodd" d="M8.48933 10.2878C9.07996 10.2878 9.64149 10.3841 9.68657 9.86347C9.73981 9.24415 9.05476 9.34841 8.48933 9.34841C7.54978 9.34841 7.54588 10.2878 8.48933 10.2878Z" fill="#5F5F9A"/>
<path fill-rule="evenodd" clip-rule="evenodd" d="M11.1477 3.61772C10.6937 3.77844 10.6462 4.27132 11.0292 4.46079C11.2293 4.55985 12.1426 4.56712 12.3733 4.47949C12.7918 4.32051 12.6971 3.77012 12.3861 3.63608C12.2026 3.55676 11.333 3.55226 11.1477 3.61772Z" fill="#5F5F9A"/>
<path fill-rule="evenodd" clip-rule="evenodd" d="M23.5409 10.288C24.0314 10.288 24.5479 10.3705 24.7243 10.0244C25.119 9.25133 23.8809 9.34866 23.5409 9.34866C22.6567 9.34866 22.6546 10.288 23.5409 10.288Z" fill="#5F5F9A"/>
<path fill-rule="evenodd" clip-rule="evenodd" d="M8.73948 3.47662C7.92736 3.79147 8.43351 4.97225 9.25557 4.62415C9.92571 4.34047 9.60413 3.14133 8.73948 3.47662Z" fill="#89E36B"/>
<path fill-rule="evenodd" clip-rule="evenodd" d="M5.79958 9.22895C4.97255 9.51782 5.4031 10.6633 6.21593 10.4101C7.00143 10.1652 6.61064 8.94562 5.79958 9.22895Z" fill="#89E36B"/>
<path fill-rule="evenodd" clip-rule="evenodd" d="M1.95659 9.32809C1.92003 9.36203 1.92855 9.30523 1.84016 9.44966C1.75107 9.59549 1.79509 9.40013 1.75782 9.68762C1.75569 10.5134 2.6136 10.6748 2.9476 10.1545C3.30894 9.59098 2.7105 8.94327 1.95659 9.32809Z" fill="#FF4155"/>
<path fill-rule="evenodd" clip-rule="evenodd" d="M5.14075 3.47196C4.42162 3.73313 4.7354 4.90143 5.56988 4.65413C6.34793 4.42379 6.0196 3.15295 5.14075 3.47196Z" fill="#FF4155"/>
<path fill-rule="evenodd" clip-rule="evenodd" d="M7.17435 4.68299C8.05285 4.61337 8.06314 3.42601 7.10266 3.43363C6.30083 3.58569 6.33242 4.56557 7.17435 4.68299Z" fill="#FEDC40"/>
<path fill-rule="evenodd" clip-rule="evenodd" d="M4.15687 10.4418C5.01514 10.413 5.14044 9.29424 4.19485 9.18652C3.3483 9.29459 3.32665 10.2824 4.15687 10.4418Z" fill="#FEDC40"/>
<path fill-rule="evenodd" clip-rule="evenodd" d="M26.8048 6.93497C26.9631 6.86742 27.5736 6.43931 27.7035 6.29972C27.5321 6.04583 27.1977 5.84286 26.8708 5.62707L26.8211 5.60352C26.704 6.21763 26.3476 6.46113 26.8048 6.93497Z" fill="#5F5F9A"/>
<path fill-rule="evenodd" clip-rule="evenodd" d="M8.2236 17.8516C7.6752 18.1141 8.07381 18.8969 8.61262 18.6236C9.11487 18.3691 8.75602 17.597 8.2236 17.8516Z" fill="#FCECA8"/>
</g>
<defs>
<clipPath id="clip0_4869_12684">
<rect width="32" height="32" fill="white"/>
</clipPath>
</defs>
</svg>
