<svg width="32" height="32" viewBox="0 0 32 32" fill="none" xmlns="http://www.w3.org/2000/svg">
<path fill-rule="evenodd" clip-rule="evenodd" d="M0 16.6696C0.620203 15.9954 0.754054 16.0285 1.93743 16.0293C3.39058 16.0308 14.6866 15.954 15.3092 16.0701C16.3558 16.2654 16.2308 16.7642 16.2308 17.8128C16.2308 18.6783 16.187 19.6666 16.2423 20.5164L19.9585 20.4922C19.9954 20.1149 19.8976 19.6182 20.0179 19.2905C19.3622 18.904 18.9716 18.7985 18.4191 18.3323C17.9643 17.9485 17.5572 17.5708 17.2061 17.0452C16.6317 16.1845 15.9158 14.6214 15.9211 13.3178L15.9131 14.3756C14.0268 14.3756 13.3457 14.3301 13.3481 12.3131C13.3493 11.3088 12.9862 8.92404 14.4573 8.82772C14.9446 7.69752 13.5283 4.2963 16.2184 2.59466C17.3323 1.88995 18.0872 1.98096 19.5625 1.97978C20.8937 1.97859 22.2301 1.96589 23.5627 1.96175C23.5518 1.94934 23.5331 1.91625 23.5272 1.92777C23.5213 1.939 23.4998 1.90118 23.4915 1.89468C22.8911 1.40655 20.4909 0.5937 19.8084 0.443008C18.6687 0.191263 17.7117 0.0438205 16.7023 0.000976562H15.4238C14.9251 0.0204779 14.3956 0.06214 13.8129 0.125667C10.6427 0.471965 7.1573 2.1872 4.92233 4.42277C4.68831 4.65678 4.50068 4.84618 4.26608 5.07902L3.07531 6.51326C1.34855 9.04991 0.522105 10.9655 0.0883472 14.0887C0.0271838 14.5292 0.00650046 14.9899 0.000590951 15.4626V16.6283V16.6702L0 16.6696Z" fill="#232E7B"/>
<path fill-rule="evenodd" clip-rule="evenodd" d="M0 25.4749C0.0159557 25.8008 0.104894 25.9128 0.51856 26.1069C1.22209 26.4373 2.70242 26.3129 3.70704 26.3129C3.95612 26.1684 5.60162 26.2638 6.04011 26.2623L6.04779 22.0955L10.1859 22.0958L10.1957 26.2629L13.435 26.2653C13.9905 26.2552 15.0193 26.3256 15.495 26.1843C16.2157 25.9704 16.2314 25.6318 16.2299 24.813C16.2278 23.4686 16.1471 21.8252 16.2423 20.5165C16.1867 19.6667 16.2308 18.6781 16.2308 17.8129C16.2308 16.7643 16.3558 16.2655 15.3092 16.0702C14.6869 15.9541 3.39058 16.0309 1.93743 16.0294C0.753758 16.0282 0.620203 15.9951 0 16.6697V25.4746L0 25.4749Z" fill="#20D688"/>
<path fill-rule="evenodd" clip-rule="evenodd" d="M13.4344 26.2656L13.4297 28.0567C14.4751 28.0739 14.5342 28.4367 14.5321 29.4381C14.5303 30.271 14.5377 31.1055 14.5303 31.9384C14.6042 31.9659 14.7162 31.9863 14.8548 32.0008H16.752C17.2003 31.9786 17.5947 31.949 17.8015 31.9281C19.0845 31.7984 20.6948 31.3634 21.8389 30.9028C23.6056 30.1913 24.6288 29.5326 26.1251 28.3765L27.0154 27.5793C28.4608 26.1252 28.928 25.4758 29.9734 23.7248C30.1855 23.3693 30.3604 22.989 30.5262 22.5902C30.7067 22.1555 30.9032 21.8193 31.0223 21.3137C30.8796 21.0487 30.3191 20.7759 30.0162 20.6713C29.2627 20.411 26.3098 20.5242 25.3888 20.5159C25.3982 22.0825 24.0842 22.0456 22.6869 22.0456C21.2932 22.0456 19.8906 22.0615 19.9579 20.4932L16.2417 20.5174C16.1466 21.8258 16.227 23.4695 16.2293 24.8139C16.2308 25.6327 16.2148 25.9713 15.4945 26.1852C15.0188 26.3264 13.9899 26.2561 13.4344 26.2662V26.2656Z" fill="#CCE9FE"/>
<path fill-rule="evenodd" clip-rule="evenodd" d="M21.1663 14.9593C21.764 14.9224 24.5489 14.8524 24.9543 15.048C26.2059 15.6522 23.3132 19.2168 21.0387 17.0256C20.755 16.7523 20.4004 16.3906 20.2317 15.8919C19.9611 15.0914 20.5363 14.9983 21.166 14.9593H21.1663ZM25.4347 11.0987C26.2464 10.9521 26.9789 11.4712 27.2046 11.9895C27.4023 12.4437 27.1432 12.8038 26.7003 12.7415C26.2461 12.6777 26.4473 12.2726 25.953 12.1089C25.4655 11.9473 25.2557 12.2365 25.0574 12.4948C24.8308 12.7897 24.4068 12.8721 24.1985 12.4865C23.8631 11.8663 24.8961 11.1962 25.4347 11.0989V11.0987ZM19.4428 11.1037C21.0079 10.7976 21.8876 12.7374 20.8126 12.7474C20.4117 12.7512 20.3375 12.3095 20.0417 12.1455C19.2871 11.7271 19.1834 12.6792 18.739 12.7415C17.797 12.8736 18.047 11.3767 19.4428 11.1034V11.1037ZM15.9317 9.88307L15.9219 13.3177C15.9166 14.6213 16.6325 16.1844 17.2069 17.0451C17.5577 17.5707 17.9648 17.9484 18.4199 18.3322C18.9724 18.7987 19.3627 18.9042 20.0187 19.2904C19.8984 19.6181 19.9962 20.1145 19.9593 20.4921C19.8919 22.0608 21.2945 22.0445 22.6883 22.0445C24.0856 22.0445 25.3996 22.0815 25.3901 20.5149L25.3786 19.2514C26.1646 19.0242 26.8066 18.5514 27.3769 18.0278L26.2804 18.0205C26.1598 18.4492 25.8632 18.3354 25.4386 18.3325C25.0884 18.3301 24.7058 18.3638 24.4145 18.2755C24.3533 18.0414 24.2765 17.4632 24.4544 17.2741C24.5847 17.108 24.5991 17.1429 24.871 17.1423C25.5987 17.1402 26.0798 17.0303 26.2665 17.3787L28.0048 17.3692C28.4001 16.7245 28.682 16.3788 29.0242 15.5225C29.252 14.9525 29.5418 13.7907 29.5235 13.1433L29.4907 9.95221C26.9349 10.0949 22.8611 9.56809 20.7438 8.1303C19.4395 7.24447 19.6502 7.03409 19.009 6.37695C18.6081 8.33477 17.9359 9.6263 15.9314 9.88277L15.9317 9.88307Z" fill="#FDB6A2"/>
<path fill-rule="evenodd" clip-rule="evenodd" d="M17.0366 3.28061C16.8844 3.44342 16.794 3.49336 16.6531 3.65232C16.5133 3.80951 16.4409 3.91559 16.2887 4.10115C16.0919 4.34137 15.8257 4.73081 15.6744 5.06292C15.5291 5.41867 15.5196 5.42458 15.5164 5.87341C15.5143 6.18602 15.5172 6.50041 15.5172 6.81332C15.5172 7.45775 15.5172 8.10248 15.5172 8.74691L15.9005 8.75223L15.9315 9.8836C17.9363 9.62743 18.6082 8.33561 19.0092 6.37779C19.6504 7.03522 19.4397 7.2456 20.7439 8.13114C22.8613 9.56892 26.935 10.0958 29.4909 9.95304C29.6102 9.66141 29.537 9.11448 29.537 8.75075L29.833 8.74573C29.833 7.55939 30.0109 5.51057 29.5644 4.62562L29.5015 4.56298V4.50063L29.4383 4.43799L29.3759 4.313C29.2122 4.20338 29.2468 4.28139 29.1883 4.06303C29.029 3.95637 28.9933 3.95577 28.9383 3.75042L28.876 3.68807L28.8134 3.62455C28.4614 3.39082 28.3134 3.21118 27.7452 3.07083C27.0632 2.9027 21.0648 2.98691 19.9384 2.98691C18.8328 2.98691 17.9963 2.86665 17.0369 3.28032L17.0366 3.28061Z" fill="#C97B33"/>
<path fill-rule="evenodd" clip-rule="evenodd" d="M14.4576 8.8271C14.7534 8.69236 15.1724 8.75264 15.5166 8.74614C15.5166 8.10171 15.5166 7.45698 15.5166 6.81255C15.5166 6.49964 15.5137 6.18555 15.5157 5.87264C15.5187 5.42381 15.5284 5.41791 15.6738 5.06215C15.6052 4.89255 15.7211 4.69813 15.8177 4.50695C15.9294 4.28564 15.9882 4.19227 16.1303 4.00435C16.4787 3.54341 16.6028 3.62644 17.0359 3.27955C17.9951 2.86588 18.8318 2.98614 19.9375 2.98614C21.0639 2.98614 27.0623 2.90193 27.7443 3.07006C28.3128 3.21041 28.4608 3.39006 28.8124 3.62378L28.8751 3.6873L28.9374 3.74965C29.0967 3.85632 29.1324 3.85691 29.1874 4.06226C29.3511 4.17188 29.3165 4.09388 29.375 4.31224L29.4373 4.43722L29.5006 4.49986V4.56221L29.5635 4.62485C30.01 5.5098 29.8321 7.55862 29.8321 8.74496L30.8748 8.76416C30.8748 6.1891 31.2306 4.5563 29.6105 2.95157C29.0269 2.37362 28.1754 2.02466 27.1217 1.94045C26.4708 1.88845 24.1575 1.87368 23.5624 1.96084C22.2301 1.96498 20.8934 1.97798 19.5623 1.97887C18.0869 1.98005 17.332 1.88875 16.2181 2.59375C13.5281 4.29539 14.9443 7.69661 14.457 8.82681L14.4576 8.8271Z" fill="#AC3C3D"/>
<path fill-rule="evenodd" clip-rule="evenodd" d="M6.04102 26.2622L6.04515 28.0572L10.1916 28.0584L10.1966 26.2628L10.1868 22.0957H6.0487L6.04102 26.2622Z" fill="#1B915E"/>
<path fill-rule="evenodd" clip-rule="evenodd" d="M5.61382 28.1927L5.6868 28.2453L5.91166 28.4551L5.98612 28.505L6.0656 28.5514L6.2287 28.6982L6.30789 28.747L6.38885 28.7925C6.49758 28.7925 6.46981 28.7656 6.46981 28.8755C7.05249 29.4703 9.23014 30.5736 9.99838 30.8762C11.203 31.3507 13.1807 31.9378 14.5301 31.9378C14.5375 31.1049 14.5298 30.2708 14.5319 29.4375C14.5342 28.4362 14.4751 28.0733 13.4294 28.0562L10.1901 28.0585L6.04344 28.0574C5.96514 28.0579 5.82095 28.0506 5.75033 28.0627C5.73023 28.0662 5.71221 28.071 5.69419 28.0748L5.58929 28.115C5.57954 28.0996 5.55443 28.1289 5.53906 28.1395L5.61352 28.193L5.61382 28.1927Z" fill="#F89F4B"/>
<path fill-rule="evenodd" clip-rule="evenodd" d="M30.8817 14.3162C30.8229 14.4249 30.8506 14.3422 30.8288 14.5062C30.7324 15.2265 31.1068 16.1975 30.2024 17.268C29.4935 18.1071 28.3831 17.9919 27.3753 18.0282C26.8047 18.5518 26.1629 19.0246 25.377 19.2518L25.3885 20.5152C26.3095 20.5235 29.2625 20.4101 30.0159 20.6707C30.3185 20.7753 30.8793 21.048 31.022 21.313C31.3713 20.7366 31.7217 18.6266 31.831 17.8323C32.0937 15.9247 31.8118 15.1648 31.8118 13.7344C31.4463 13.9583 31.4301 14.2278 30.882 14.3168L30.8817 14.3162Z" fill="#232E7B"/>
<path fill-rule="evenodd" clip-rule="evenodd" d="M14.4567 8.82748C12.9855 8.9238 13.3486 11.3086 13.3474 12.3129C13.3451 14.3298 14.0261 14.3753 15.9125 14.3753L15.9204 13.3175L15.9302 9.88292L15.8992 8.75154L15.5159 8.74622C15.1714 8.75272 14.7524 8.69245 14.4569 8.82718L14.4567 8.82748Z" fill="#F34F50"/>
<path fill-rule="evenodd" clip-rule="evenodd" d="M29.4902 9.95302L29.523 13.1442L29.5334 14.3754H30.1876C30.4485 14.3763 30.7422 14.3589 30.8828 14.3163C31.4309 14.2274 31.4472 13.9579 31.8127 13.7339C31.9666 13.1557 31.9956 13.4054 32.0003 13.0517V12.3753V12.3021C32.0003 11.8789 32.0003 11.4558 32.0003 11.0324V10.8126V10.0508C31.9849 9.83069 31.9385 9.63893 31.813 9.43742C31.579 9.06187 31.3033 8.91324 30.8754 8.76432L29.8327 8.74512L29.5366 8.75014C29.5366 9.11357 29.6099 9.6608 29.4905 9.95243L29.4902 9.95302Z" fill="#F34F50"/>
<path fill-rule="evenodd" clip-rule="evenodd" d="M21.1651 14.9591C20.5355 14.9981 19.9599 15.0912 20.2308 15.8917C20.3995 16.3904 20.7541 16.7521 21.0378 17.0254C23.3121 19.2169 26.2048 15.652 24.9534 15.0478C24.548 14.8519 21.7632 14.9222 21.1654 14.9591H21.1651Z" fill="#FFFEFE"/>
<path fill-rule="evenodd" clip-rule="evenodd" d="M10.1914 28.0583L13.431 28.0562L13.4357 26.2651L10.1964 26.2627L10.1914 28.0583Z" fill="#232E7B"/>
<path fill-rule="evenodd" clip-rule="evenodd" d="M30.1875 14.3752C30.1875 15.2989 30.3092 15.9604 29.8424 16.6527C29.5102 17.145 28.8897 17.418 28.0039 17.3698L26.2656 17.3793L26.2795 18.0211L27.376 18.0285C28.3842 17.9921 29.4943 18.1074 30.2031 17.2682C31.1076 16.1977 30.7332 15.2268 30.8295 14.5064C30.8514 14.3424 30.8236 14.4251 30.8824 14.3164C30.7418 14.359 30.4481 14.3764 30.1872 14.3755L30.1875 14.3752Z" fill="#AC3C3D"/>
<path fill-rule="evenodd" clip-rule="evenodd" d="M28.0039 17.3694C28.8897 17.4176 29.5102 17.1446 29.8424 16.6523C30.3092 15.9603 30.1875 15.2985 30.1875 14.3748H29.5333L29.5229 13.1436C29.5413 13.7909 29.2511 14.9528 29.0236 15.5227C28.6814 16.379 28.3995 16.7247 28.0042 17.3694H28.0039Z" fill="#232E7B"/>
<path fill-rule="evenodd" clip-rule="evenodd" d="M19.4426 11.1038C18.0468 11.3768 17.7971 12.8737 18.7388 12.7419C19.1832 12.6796 19.2869 11.7276 20.0416 12.1459C20.337 12.3099 20.4115 12.7517 20.8125 12.7478C21.8877 12.7378 21.0078 10.7977 19.4426 11.1041V11.1038Z" fill="#232E7B"/>
<path fill-rule="evenodd" clip-rule="evenodd" d="M25.4347 11.0986C24.8957 11.1958 23.8631 11.866 24.1984 12.4862C24.4067 12.8718 24.831 12.7896 25.0574 12.4945C25.2556 12.2362 25.4654 11.9472 25.953 12.1086C26.4473 12.2723 26.2461 12.6774 26.7002 12.7412C27.1431 12.8035 27.4023 12.443 27.2046 11.9892C26.9788 11.4709 26.2467 10.9521 25.4347 11.0983V11.0986Z" fill="#232E7B"/>
<path fill-rule="evenodd" clip-rule="evenodd" d="M5.53987 28.1391L5.61433 28.1926L5.68731 28.2452C5.78304 28.3956 5.7272 28.3619 5.91217 28.455L5.98662 28.5049L6.06611 28.5513C6.13968 28.6775 6.07054 28.6373 6.22921 28.6982L6.3084 28.7469C6.31372 28.8409 6.29215 28.8181 6.38936 28.7924C6.36867 28.908 6.3477 28.8755 6.47032 28.8755C6.47032 28.7655 6.49809 28.7924 6.38936 28.7924L6.3084 28.7469L6.22921 28.6982L6.06611 28.5513L5.98662 28.5049L5.91217 28.455L5.68731 28.2452L5.61433 28.1926L5.53987 28.1391C5.55523 28.1285 5.58035 28.099 5.5901 28.1146L5.69499 28.0744C5.71301 28.0703 5.73074 28.0656 5.75113 28.0623C5.82145 28.0502 5.96565 28.0576 6.04424 28.057L6.04011 26.262C5.60162 26.2635 3.95612 26.168 3.70703 26.3125L5.53987 28.1391Z" fill="#232E7B"/>
<path fill-rule="evenodd" clip-rule="evenodd" d="M26.2798 18.0212L26.2659 17.3794C26.0792 17.0311 25.5981 17.141 24.8704 17.143C24.5985 17.1436 24.5838 17.1088 24.4538 17.2748C24.2759 17.4639 24.353 18.0425 24.4139 18.2762C24.7052 18.3643 25.0875 18.3309 25.438 18.3332C25.8626 18.3359 26.1595 18.4499 26.2798 18.0212Z" fill="#F34F50"/>
<path fill-rule="evenodd" clip-rule="evenodd" d="M15.6731 5.06258C15.8244 4.73047 16.0906 4.34103 16.2874 4.10081C16.4393 3.91496 16.512 3.80888 16.6518 3.65198C16.793 3.49331 16.8831 3.44308 17.0353 3.28027C16.6021 3.62716 16.478 3.54413 16.1296 4.00507C15.9875 4.193 15.9287 4.28637 15.817 4.50768C15.7204 4.69885 15.6043 4.89327 15.6731 5.06288V5.06258Z" fill="#232E7B"/>
</svg>
