<svg width="32" height="33" viewBox="0 0 32 33" fill="none" xmlns="http://www.w3.org/2000/svg">
<path d="M21.788 2.91602H10.228C5.70797 2.91602 2.66797 6.08935 2.66797 10.8093V21.7027C2.66797 26.4093 5.70797 29.5827 10.228 29.5827H21.788C26.308 29.5827 29.3346 26.4093 29.3346 21.7027V10.8093C29.3346 6.08935 26.308 2.91602 21.788 2.91602Z" fill="#2DC076"/>
<path d="M14.4192 20.58C14.1206 20.58 13.8219 20.4666 13.5939 20.2386L10.4299 17.0746C9.97389 16.6186 9.97389 15.88 10.4299 15.4253C10.8859 14.9693 11.6232 14.968 12.0792 15.424L14.4192 17.764L19.9232 12.26C20.3792 11.804 21.1166 11.804 21.5726 12.26C22.0286 12.716 22.0286 13.4546 21.5726 13.9106L15.2446 20.2386C15.0166 20.4666 14.7179 20.58 14.4192 20.58Z" fill="#FEFFFF"/>
</svg>
