<svg width="24" height="25" viewBox="0 0 24 25" fill="none" xmlns="http://www.w3.org/2000/svg">
<g clip-path="url(#clip0_4210_24805)">
<path fill-rule="evenodd" clip-rule="evenodd" d="M15.3337 7.51118C14.347 6.8519 13.1869 6.5 12.0002 6.5V0.5C14.3736 0.5 16.6937 1.20379 18.6671 2.52237C20.6405 3.84094 22.1785 5.71509 23.0868 7.90778C23.995 10.1005 24.2327 12.5133 23.7697 14.8411C23.3066 17.1688 22.1638 19.3071 20.4855 20.9853C18.8073 22.6635 16.6691 23.8064 14.3413 24.2694C12.0136 24.7324 9.60072 24.4948 7.40802 23.5866C5.21533 22.6783 3.34118 21.1402 2.02261 19.1668C0.704032 17.1934 0.000244141 14.8734 0.000244141 12.5H6.00024C6.00024 13.6867 6.35214 14.8467 7.01142 15.8334C7.6707 16.8201 8.60778 17.5891 9.70416 18.0433C10.8005 18.4974 12.0069 18.6162 13.1708 18.3847C14.3347 18.1532 15.4037 17.5818 16.2429 16.7427C17.082 15.9035 17.6534 14.8344 17.8849 13.6705C18.1165 12.5067 17.9977 11.3002 17.5435 10.2039C17.0894 9.10754 16.3204 8.17046 15.3337 7.51118Z" fill="#F0F4FD"/>
<path fill-rule="evenodd" clip-rule="evenodd" d="M6.00024 0.500003C6.00024 1.28793 5.84505 2.06815 5.54352 2.7961C5.24199 3.52406 4.80004 4.18549 4.24288 4.74264C3.68573 5.2998 3.0243 5.74175 2.29634 6.04328C1.56839 6.34481 0.788173 6.5 0.000244403 6.5L0.000244141 12.5C1.57611 12.5 3.13654 12.1896 4.59245 11.5866C6.04836 10.9835 7.37124 10.0996 8.4855 8.98526C9.59982 7.871 10.4837 6.54812 11.0868 5.0922C11.6899 3.63629 12.0002 2.07586 12.0002 0.5L6.00024 0.500003Z" fill="#F0F4FD"/>
</g>
<defs>
<clipPath id="clip0_4210_24805">
<rect width="24" height="24" fill="white" transform="translate(0 0.5)"/>
</clipPath>
</defs>
</svg>
