<svg width="274" height="220" viewBox="0 0 274 220" fill="none" xmlns="http://www.w3.org/2000/svg">
<circle cx="134.5" cy="109.5" r="105.061" stroke="url(#paint0_linear_4848_3192)" stroke-width="0.877359"/>
<circle cx="135.5" cy="110.5" r="55.0613" fill="url(#paint1_radial_4848_3192)" stroke="url(#paint2_linear_4848_3192)" stroke-width="0.877359"/>
<g clip-path="url(#clip0_4848_3192)">
<path fill-rule="evenodd" clip-rule="evenodd" d="M152.723 89.9145C158.619 92.9441 163.254 101.402 164.246 108.507C167.257 130.345 142.913 146.449 123.653 134.222C120.966 132.527 117.486 129.516 116.007 126.648C104.719 108.579 116.134 87.9849 134.563 85.6225C142.227 84.6307 147.511 86.7947 152.741 89.9145H152.723ZM159.611 141.778C160.044 141.129 161.054 140.552 161.811 139.849L165.905 135.737C166.554 135.016 167.257 133.916 167.834 133.537C170.233 129.281 171.82 127.694 173.407 121.87C176.364 110.977 174.525 99.7246 168.051 90.6358C163.885 84.775 157.754 79.7797 150.919 77.3452C145.257 75.3255 138.693 74.3697 132.093 75.4157C130.831 75.614 129.658 75.9206 128.558 76.1911C113.338 79.9781 101.942 93.8818 101.166 109.841C101.022 112.673 100.86 109.877 101.148 113.737C101.274 115.396 101.256 116.153 101.491 117.704C101.942 120.571 102.537 122.302 103.33 124.701C104.142 127.153 106.233 131.031 107.802 133.176C111.301 137.919 115.196 141.562 120.57 144.357L125.006 146.395C127.35 147.297 129.298 147.783 132.003 148.252C140.622 149.713 149.675 147.802 156.834 143.51C157.808 142.914 158.619 142.337 159.593 141.778H159.611Z" fill="white"/>
<path fill-rule="evenodd" clip-rule="evenodd" d="M177.392 143.077C176.815 143.925 173.136 147.568 172.505 147.892L170.756 149.894C170.99 151.932 172.217 152.599 174.11 154.511L193.532 173.932C197.607 178.008 198.166 178.495 203.342 178.351C203.594 178.351 203.251 178.315 203.684 178.351C204.478 178.423 203.865 178.333 204.171 178.459L205.956 176.024C207.688 172.778 207.165 168.829 205.073 166.034L183.325 144.214C181.395 142.284 180.422 141.238 177.392 143.077Z" fill="#212121"/>
<path fill-rule="evenodd" clip-rule="evenodd" d="M169.13 151.337C167.111 153.952 168.553 155.557 170.158 157.162L191.726 178.747C194.539 181.488 199.57 181.759 202.906 179.469C203.411 179.108 203.555 178.892 204.151 178.477C203.844 178.333 204.457 178.441 203.664 178.369C203.231 178.333 203.574 178.351 203.321 178.369C198.146 178.513 197.587 178.026 193.511 173.951L174.089 154.529C172.196 152.617 170.952 151.95 170.735 149.912C170.086 150.561 169.852 150.976 169.13 151.337Z" fill="#151515"/>
<path fill-rule="evenodd" clip-rule="evenodd" d="M159.611 141.796L169.133 151.336C169.872 150.975 170.089 150.542 170.738 149.911L172.487 147.909C171.82 147.675 167.293 143.058 166.897 142.247C166.969 140.642 168.051 140.48 168.898 139.434C169.584 138.604 170.305 137.594 171.062 136.801L167.834 133.591C167.257 133.97 166.554 135.07 165.905 135.791L161.811 139.902C161.054 140.588 160.044 141.183 159.611 141.832V141.796Z" fill="#FEFFFF"/>
<path fill-rule="evenodd" clip-rule="evenodd" d="M172.504 147.893C173.135 147.587 176.814 143.926 177.391 143.078L171.08 136.767C170.322 137.56 169.583 138.57 168.916 139.399C168.068 140.445 166.986 140.608 166.914 142.213C167.311 143.042 171.837 147.641 172.504 147.875V147.893Z" fill="#FEFFFF"/>
</g>
<path d="M137.016 82.7275H142.496C147.672 82.7275 151.519 82.7284 154.476 83.126C157.422 83.5223 159.432 84.3067 160.962 85.8379C162.492 87.3693 163.277 89.3792 163.674 92.3252C164.072 95.2812 164.073 99.1288 164.073 104.305V115.265C164.073 120.441 164.072 124.289 163.675 127.245C163.278 130.192 162.493 132.201 160.962 133.731C159.43 135.261 157.421 136.047 154.475 136.443C151.519 136.841 147.672 136.842 142.496 136.842H137.016C131.84 136.842 127.992 136.842 125.035 136.444C122.089 136.048 120.079 135.263 118.549 133.731C117.019 132.2 116.235 130.19 115.838 127.244C115.44 124.288 115.438 120.441 115.438 115.265V104.305C115.438 99.1288 115.439 95.2806 115.837 92.3242C116.233 89.3779 117.018 87.3678 118.549 85.8379C120.08 84.3079 122.09 83.5236 125.036 83.127C127.992 82.729 131.84 82.7275 137.016 82.7275Z" fill="#212121" stroke="url(#paint3_linear_4848_3192)" stroke-width="0.685"/>
<path fill-rule="evenodd" clip-rule="evenodd" d="M126.74 109.786C126.74 109.24 126.957 108.718 127.342 108.332C127.728 107.947 128.25 107.731 128.795 107.731H150.715C151.26 107.731 151.783 107.947 152.168 108.332C152.554 108.718 152.77 109.24 152.77 109.786C152.77 110.331 152.554 110.853 152.168 111.239C151.783 111.624 151.26 111.841 150.715 111.841H128.795C128.25 111.841 127.728 111.624 127.342 111.239C126.957 110.853 126.74 110.331 126.74 109.786ZM126.74 98.8255C126.74 98.2805 126.957 97.7578 127.342 97.3724C127.728 96.987 128.25 96.7705 128.795 96.7705H150.715C151.26 96.7705 151.783 96.987 152.168 97.3724C152.554 97.7578 152.77 98.2805 152.77 98.8255C152.77 99.3705 152.554 99.8932 152.168 100.279C151.783 100.664 151.26 100.881 150.715 100.881H128.795C128.25 100.881 127.728 100.664 127.342 100.279C126.957 99.8932 126.74 99.3705 126.74 98.8255ZM126.74 120.746C126.74 120.2 126.957 119.678 127.342 119.292C127.728 118.907 128.25 118.691 128.795 118.691H142.495C143.04 118.691 143.563 118.907 143.948 119.292C144.334 119.678 144.55 120.2 144.55 120.746C144.55 121.291 144.334 121.813 143.948 122.199C143.563 122.584 143.04 122.801 142.495 122.801H128.795C128.25 122.801 127.728 122.584 127.342 122.199C126.957 121.813 126.74 121.291 126.74 120.746Z" fill="#FEFFFF"/>
<path d="M162.589 123.485H156.65C154.327 123.485 152.766 125.116 152.766 127.541V133.137C152.766 135.555 154.327 137.185 156.65 137.185H162.589C164.911 137.185 166.466 135.555 166.466 133.137V127.541C166.466 125.116 164.911 123.485 162.589 123.485Z" fill="#2DC076"/>
<path d="M158.803 132.56C158.65 132.56 158.496 132.502 158.379 132.385L156.754 130.76C156.52 130.525 156.52 130.146 156.754 129.912C156.988 129.678 157.367 129.677 157.601 129.912L158.803 131.114L161.631 128.286C161.865 128.052 162.244 128.052 162.478 128.286C162.713 128.52 162.713 128.9 162.478 129.134L159.227 132.385C159.11 132.502 158.957 132.56 158.803 132.56Z" fill="#FEFFFF"/>
<path d="M38.7246 99.043C38.7246 88.7105 38.7246 83.5429 41.9359 80.3343C45.1472 77.1258 50.3121 77.123 60.6446 77.123H66.1246C76.4571 77.123 81.6248 77.123 84.8333 80.3343C88.0419 83.5456 88.0446 88.7105 88.0446 99.043V110.003C88.0446 120.336 88.0446 125.503 84.8333 128.712C81.622 131.92 76.4571 131.923 66.1246 131.923H60.6446C50.3121 131.923 45.1444 131.923 41.9359 128.712C38.7273 125.5 38.7246 120.336 38.7246 110.003V99.043Z" fill="#151515"/>
<path d="M67.1406 82.7275H72.6211C77.7967 82.7275 81.6443 82.7284 84.6006 83.126C87.547 83.5223 89.5569 84.3067 91.0869 85.8379C92.617 87.3693 93.4022 89.3792 93.7988 92.3252C94.1968 95.2812 94.1982 99.1288 94.1982 104.305V115.265C94.1982 120.441 94.1974 124.289 93.7998 127.245C93.4035 130.192 92.6182 132.201 91.0869 133.731C89.5555 135.261 87.5456 136.047 84.5996 136.443C81.6437 136.841 77.7966 136.842 72.6211 136.842H67.1406C61.9647 136.842 58.1165 136.842 55.1602 136.444C52.2137 136.048 50.2038 135.263 48.6738 133.731C47.1439 132.2 46.3595 130.19 45.9629 127.244C45.5649 124.288 45.5635 120.441 45.5635 115.265V104.305C45.5635 99.1288 45.5643 95.2806 45.9619 92.3242C46.3582 89.3779 47.1426 87.3678 48.6738 85.8379C50.2052 84.3079 52.2152 83.5236 55.1611 83.127C58.1172 82.729 61.9648 82.7275 67.1406 82.7275Z" fill="#212121" stroke="url(#paint4_linear_4848_3192)" stroke-width="0.685"/>
<path fill-rule="evenodd" clip-rule="evenodd" d="M56.8652 109.786C56.8652 109.24 57.0817 108.718 57.4671 108.332C57.8525 107.947 58.3752 107.731 58.9202 107.731H80.8402C81.3853 107.731 81.908 107.947 82.2933 108.332C82.6787 108.718 82.8952 109.24 82.8952 109.786C82.8952 110.331 82.6787 110.853 82.2933 111.239C81.908 111.624 81.3853 111.841 80.8402 111.841H58.9202C58.3752 111.841 57.8525 111.624 57.4671 111.239C57.0817 110.853 56.8652 110.331 56.8652 109.786ZM56.8652 98.8255C56.8652 98.2805 57.0817 97.7578 57.4671 97.3724C57.8525 96.987 58.3752 96.7705 58.9202 96.7705H80.8402C81.3853 96.7705 81.908 96.987 82.2933 97.3724C82.6787 97.7578 82.8952 98.2805 82.8952 98.8255C82.8952 99.3705 82.6787 99.8932 82.2933 100.279C81.908 100.664 81.3853 100.881 80.8402 100.881H58.9202C58.3752 100.881 57.8525 100.664 57.4671 100.279C57.0817 99.8932 56.8652 99.3705 56.8652 98.8255ZM56.8652 120.746C56.8652 120.2 57.0817 119.678 57.4671 119.292C57.8525 118.907 58.3752 118.691 58.9202 118.691H72.6202C73.1653 118.691 73.688 118.907 74.0733 119.292C74.4587 119.678 74.6752 120.2 74.6752 120.746C74.6752 121.291 74.4587 121.813 74.0733 122.199C73.688 122.584 73.1653 122.801 72.6202 122.801H58.9202C58.3752 122.801 57.8525 122.584 57.4671 122.199C57.0817 121.813 56.8652 121.291 56.8652 120.746Z" fill="#FEFFFF"/>
<path d="M179.148 99.043C179.148 88.7105 179.148 83.5429 182.36 80.3343C185.571 77.1258 190.736 77.123 201.068 77.123H206.548C216.881 77.123 222.049 77.123 225.257 80.3343C228.466 83.5456 228.468 88.7105 228.468 99.043V110.003C228.468 120.336 228.468 125.503 225.257 128.712C222.046 131.92 216.881 131.923 206.548 131.923H201.068C190.736 131.923 185.568 131.923 182.36 128.712C179.151 125.5 179.148 120.336 179.148 110.003V99.043Z" fill="#151515"/>
<path d="M207.566 82.7275H213.047C218.222 82.7275 222.07 82.7284 225.026 83.126C227.973 83.5223 229.983 84.3067 231.513 85.8379C233.043 87.3693 233.828 89.3792 234.225 92.3252C234.623 95.2812 234.624 99.1288 234.624 104.305V115.265C234.624 120.441 234.623 124.289 234.226 127.245C233.829 130.192 233.044 132.201 231.513 133.731C229.981 135.261 227.971 136.047 225.025 136.443C222.069 136.841 218.222 136.842 213.047 136.842H207.566C202.39 136.842 198.542 136.842 195.586 136.444C192.64 136.048 190.63 135.263 189.1 133.731C187.57 132.2 186.785 130.19 186.389 127.244C185.991 124.288 185.989 120.441 185.989 115.265V104.305C185.989 99.1288 185.99 95.2806 186.388 92.3242C186.784 89.3779 187.568 87.3678 189.1 85.8379C190.631 84.3079 192.641 83.5236 195.587 83.127C198.543 82.729 202.391 82.7275 207.566 82.7275Z" fill="#212121" stroke="url(#paint5_linear_4848_3192)" stroke-width="0.685"/>
<path fill-rule="evenodd" clip-rule="evenodd" d="M197.291 109.786C197.291 109.24 197.508 108.718 197.893 108.332C198.278 107.947 198.801 107.731 199.346 107.731H221.266C221.811 107.731 222.334 107.947 222.719 108.332C223.105 108.718 223.321 109.24 223.321 109.786C223.321 110.331 223.105 110.853 222.719 111.239C222.334 111.624 221.811 111.841 221.266 111.841H199.346C198.801 111.841 198.278 111.624 197.893 111.239C197.508 110.853 197.291 110.331 197.291 109.786ZM197.291 98.8255C197.291 98.2805 197.508 97.7578 197.893 97.3724C198.278 96.987 198.801 96.7705 199.346 96.7705H221.266C221.811 96.7705 222.334 96.987 222.719 97.3724C223.105 97.7578 223.321 98.2805 223.321 98.8255C223.321 99.3705 223.105 99.8932 222.719 100.279C222.334 100.664 221.811 100.881 221.266 100.881H199.346C198.801 100.881 198.278 100.664 197.893 100.279C197.508 99.8932 197.291 99.3705 197.291 98.8255ZM197.291 120.746C197.291 120.2 197.508 119.678 197.893 119.292C198.278 118.907 198.801 118.691 199.346 118.691H213.046C213.591 118.691 214.114 118.907 214.499 119.292C214.885 119.678 215.101 120.2 215.101 120.746C215.101 121.291 214.885 121.813 214.499 122.199C214.114 122.584 213.591 122.801 213.046 122.801H199.346C198.801 122.801 198.278 122.584 197.893 122.199C197.508 121.813 197.291 121.291 197.291 120.746Z" fill="#FEFFFF"/>
<circle cx="70" cy="28" r="15.5375" fill="#212121" stroke="url(#paint6_linear_4848_3192)" stroke-width="0.925029"/>
<g clip-path="url(#clip1_4848_3192)">
<path d="M62.3678 31.1293L67.6798 22.2725C68.3546 22.6593 71.7571 24.4932 72.3066 24.842L66.9946 33.6993C66.4136 34.4468 61.6318 32.2636 62.3678 31.1288V31.1293Z" fill="#FBBC04"/>
<path d="M77.6293 31.1288L72.3173 22.2725C71.5747 21.0689 69.9753 20.6315 68.6616 21.3424C67.3479 22.0533 66.9479 23.5846 67.6906 24.842L73.0026 33.6994C73.7452 34.9025 75.3446 35.3398 76.6583 34.629C77.9146 33.918 78.3719 32.3324 77.6293 31.1298V31.1288Z" fill="#4285F4"/>
<path d="M64.6665 34.9711C66.1392 34.9711 67.333 33.8373 67.333 32.4387C67.333 31.0401 66.1392 29.9062 64.6665 29.9062C63.1938 29.9062 62 31.0401 62 32.4387C62 33.8373 63.1938 34.9711 64.6665 34.9711Z" fill="#34A853"/>
</g>
<circle cx="217" cy="44" r="19.4219" fill="#212121" stroke="url(#paint7_linear_4848_3192)" stroke-width="1.15629"/>
<g clip-path="url(#clip2_4848_3192)">
<path d="M207.335 46.7259C207.335 47.7263 207.555 48.4943 207.843 48.9589C208.22 49.5676 208.782 49.8253 209.355 49.8253C210.095 49.8253 210.771 49.6422 212.075 47.8428C213.119 46.4007 214.35 44.3762 215.178 43.1071L216.58 40.9569C217.554 39.4637 218.681 37.8038 219.974 36.6786C221.029 35.7602 222.167 35.25 223.313 35.25C225.236 35.25 227.068 36.3624 228.471 38.4488C230.005 40.7337 230.75 43.6118 230.75 46.5819C230.75 48.3476 230.401 49.6449 229.808 50.67C229.235 51.6612 228.117 52.6515 226.238 52.6515V49.8253C227.847 49.8253 228.249 48.3494 228.249 46.6603C228.249 44.2533 227.686 41.5819 226.448 39.6733C225.569 38.3194 224.429 37.4921 223.176 37.4921C221.82 37.4921 220.73 38.5125 219.504 40.3321C218.852 41.2987 218.183 42.4767 217.432 43.8059L216.604 45.2682C214.943 48.2082 214.522 48.8778 213.691 49.983C212.235 51.9182 210.992 52.6515 209.355 52.6515C207.414 52.6515 206.186 51.8124 205.426 50.5479C204.805 49.5174 204.5 48.1654 204.5 46.6248L207.335 46.7259Z" fill="#0081FB"/>
<path d="M206.736 38.6483C208.036 36.6486 209.912 35.25 212.064 35.25C213.31 35.25 214.549 35.6181 215.842 36.6722C217.257 37.8246 218.765 39.7224 220.646 42.8502L221.321 43.9726C222.949 46.6804 223.876 48.0733 224.418 48.7303C225.116 49.5739 225.604 49.8253 226.239 49.8253C227.848 49.8253 228.25 48.3494 228.25 46.6603L230.751 46.5819C230.751 48.3476 230.402 49.6449 229.809 50.67C229.235 51.6612 228.118 52.6515 226.239 52.6515C225.07 52.6515 224.035 52.3983 222.89 51.3204C222.01 50.4932 220.981 49.0236 220.19 47.7025L217.836 43.7776C216.655 41.8079 215.571 40.3393 214.944 39.6741C214.269 38.959 213.402 38.0952 212.018 38.0952C210.898 38.0952 209.947 38.8798 209.151 40.0796L206.736 38.6483Z" fill="url(#paint8_linear_4848_3192)"/>
<path d="M212.017 38.0952C210.897 38.0952 209.946 38.8798 209.15 40.0796C208.025 41.7751 207.335 44.3006 207.335 46.7259C207.335 47.7263 207.555 48.4943 207.843 48.9589L205.426 50.5479C204.805 49.5174 204.5 48.1654 204.5 46.6248C204.5 43.8232 205.27 40.9032 206.736 38.6483C208.036 36.6486 209.911 35.25 212.063 35.25L212.017 38.0952Z" fill="url(#paint9_linear_4848_3192)"/>
</g>
<defs>
<linearGradient id="paint0_linear_4848_3192" x1="134.5" y1="4" x2="134.5" y2="215" gradientUnits="userSpaceOnUse">
<stop stop-color="#838383"/>
<stop offset="0.424" stop-color="#1C1C1C"/>
<stop offset="1" stop-color="#0D0D0D"/>
</linearGradient>
<radialGradient id="paint1_radial_4848_3192" cx="0" cy="0" r="1" gradientUnits="userSpaceOnUse" gradientTransform="translate(135.5 110.5) rotate(90) scale(55.5 54.8232)">
<stop stop-color="#2D2D2D"/>
<stop offset="1" stop-color="#0D0D0D"/>
</radialGradient>
<linearGradient id="paint2_linear_4848_3192" x1="135.5" y1="55" x2="135.5" y2="166" gradientUnits="userSpaceOnUse">
<stop stop-color="#838383"/>
<stop offset="0.424" stop-color="#1C1C1C"/>
<stop offset="1" stop-color="#0D0D0D"/>
</linearGradient>
<linearGradient id="paint3_linear_4848_3192" x1="139.756" y1="82.3848" x2="139.756" y2="137.185" gradientUnits="userSpaceOnUse">
<stop stop-color="#838383"/>
<stop offset="0.424" stop-color="#333333"/>
<stop offset="1" stop-color="#212121"/>
</linearGradient>
<linearGradient id="paint4_linear_4848_3192" x1="69.8807" y1="82.3848" x2="69.8807" y2="137.185" gradientUnits="userSpaceOnUse">
<stop stop-color="#838383"/>
<stop offset="0.424" stop-color="#333333"/>
<stop offset="1" stop-color="#212121"/>
</linearGradient>
<linearGradient id="paint5_linear_4848_3192" x1="210.306" y1="82.3848" x2="210.306" y2="137.185" gradientUnits="userSpaceOnUse">
<stop stop-color="#838383"/>
<stop offset="0.424" stop-color="#333333"/>
<stop offset="1" stop-color="#212121"/>
</linearGradient>
<linearGradient id="paint6_linear_4848_3192" x1="70" y1="12" x2="70" y2="44" gradientUnits="userSpaceOnUse">
<stop stop-color="#838383"/>
<stop offset="0.424" stop-color="#333333"/>
<stop offset="1" stop-color="#212121"/>
</linearGradient>
<linearGradient id="paint7_linear_4848_3192" x1="217" y1="24" x2="217" y2="64" gradientUnits="userSpaceOnUse">
<stop stop-color="#838383"/>
<stop offset="0.424" stop-color="#333333"/>
<stop offset="1" stop-color="#212121"/>
</linearGradient>
<linearGradient id="paint8_linear_4848_3192" x1="540.009" y1="1008.59" x2="2345.29" y2="1099.94" gradientUnits="userSpaceOnUse">
<stop stop-color="#0064E1"/>
<stop offset="0.4" stop-color="#0064E1"/>
<stop offset="0.83" stop-color="#0073EE"/>
<stop offset="1" stop-color="#0082FB"/>
</linearGradient>
<linearGradient id="paint9_linear_4848_3192" x1="615.283" y1="1301.64" x2="615.283" y2="636.563" gradientUnits="userSpaceOnUse">
<stop stop-color="#0082FB"/>
<stop offset="1" stop-color="#0064E0"/>
</linearGradient>
<clipPath id="clip0_4848_3192">
<rect width="106" height="106" fill="white" transform="translate(101 75)"/>
</clipPath>
<clipPath id="clip1_4848_3192">
<rect width="16" height="14" fill="white" transform="translate(62 21)"/>
</clipPath>
<clipPath id="clip2_4848_3192">
<rect width="26.25" height="17.5" fill="white" transform="translate(204.5 35.25)"/>
</clipPath>
</defs>
</svg>
